<?xml version="1.0" encoding="UTF-8"?><svg id="Layer_2" xmlns="http://www.w3.org/2000/svg" viewBox="0 0 73.5490944294 71.8831763625"><defs><style>.cls-1{fill:#fd9900;}.cls-2{fill:#390000;}</style></defs><g id="Layer_1-2"><path class="cls-2" d="M73.4569135334,10.7557053036c.0677633662,.4837048684,.099167271,.9762906194,.0908790687,1.4760940108-.1354178199,8.1660996899-.0871754831,16.3498789063-.0871754831,24.5235695275v12.8540306112c0,2.1423383565,0,4.284676713,.0000000008,6.4271548531,.0000485599,4.2376362958-.3284881729,7.9555530488-3.297715532,11.2793900342-2.6336802839,2.9482161103-6.4985952993,4.4131371798-10.4097135866,4.4042085135-8.3359880394-.01903016-16.6719264998,.0254458483-25.0078830087,.0400197925-4.1680700996,.0072871327-8.3361734984,.0073120412-12.5042139961-.0118804684-3.6675744196-.0168880215-7.7685312619,.455811441-11.3740422013-.2750742562-2.7625552055-.5592704623-5.3901399426-1.7848738378-7.3316207827-3.8668486087C-.4010389558,63.3848461476,.0124637196,58.6958076714,.0124637196,53.3164124781V15.1509411982C.0124637196,11.0629333741,.5192957553,7.4528047138,3.4011182441,4.298463638,6.0148242571,1.4375933836,9.8066578743-.0074174022,13.6459686872,.0000286297c15.3934054847,.0298569784,30.7869127545,.0059615593,46.1803653012,.0183653484,.879967273,.000709058,1.7747414845,.0515174447,2.637320379,.2136497288,5.1067733846,.9598807003,10.2481376808,5.2048749136,10.993259166,10.5236615967ZM29.9039778735,43.0272948032c1.6728425703,0,3.3460419355,.0193411909,5.0183088184-.0116975242,.5071018146-.0094123043,.7517230001,.1298591547,.9174312307,.6352561178,.6911510523,2.107918383,1.4490621449,4.1939126637,2.1447289507,6.3004170121,.1723910203,.5220107746,.4346374343,.7078534398,.97889626,.6995837455,1.8396999869-.0279611105,3.6800916742-.0094473268,5.5202163126-.0111678085,.9345967848-.0008755632,.97789811-.0577696594,.6723241037-.9204752052-1.3221679421-3.7327272639-2.6481139697-7.4641236718-3.9711968826-11.1965269774-2.2954474192-6.4754399051-4.5909429947-12.9508601101-6.8817323803-19.427946074-.1397059841-.3950103337-.2423578365-.7351819559-.7984521826-.729328816-2.4373007392,.0256518126-4.8750567749,.0175616087-7.3125610842,.0048703203-.4531032103-.0023574539-.6592277622,.1487450527-.6425306381,.6212843182,.0386060799,1.0925365057-.2565946082,2.1249655983-.6116076869,3.1440795637-.9181360647,2.6356312629-1.8344662659,5.2718885535-2.7509847146,7.9080823658-2.2717544891,6.5342799405-4.543998203,13.0683891462-6.8138844441,19.6033170034-.3137222816,.9032003434-.2500880271,.9914133349,.68716283,.9925734562,1.6250440976,.0020094175,3.2505194136-.0208252705,4.8749166837,.011631857,.5990016647,.0119733266,.8958528027-.1850327692,1.0763625479-.7747814901,.6422570224-2.0983353439,1.3502015116-4.176493334,2.0055811426-6.2709499329,.1354244457-.4327908854,.3256420757-.5987188658,.7970162475-.5902171472,1.6961896502,.030614067,3.3932636263,.0120214826,5.0900048857,.0119952157Zm25.4926843987-4.5813012198c0-3.8231357302-.010760758-7.6463349386,.0112817223-11.4693437121,.0034147239-.5923097433-.1781391388-.7972287415-.7750197347-.7873020438-1.7677237371,.0293904674-3.5365550704,.0287469285-5.3042963189-.0002079463-.5828058046-.0095480166-.801116105,.1697979697-.7999822416,.7728224175,.0143681073,7.6223532628,.0130022177,15.244745926,.0024165738,22.8671101334-.0008361696,.6026282555,.1939081585,.8552107249,.831515903,.8431892423,1.7198125347-.0324177272,3.4414112326-.0408581563,5.1606852916,.0036510985,.7031222862,.0182073366,.8915668864-.2258296361,.8866680711-.903970839-.0273002794-3.7751526784-.0131072862-7.5505986704-.0132692667-11.3259483505Zm.4269499278-18.7201035788c-.0010900849-2.2703003324-1.5023384038-3.7890697553-3.750627611-3.7943986518-2.210280704-.0052380568-3.861728716,1.6292315695-3.8601176668,3.8204357122,.0016854727,2.3025911029,1.5707773499,3.8807762439,3.8557967278,3.8781495544,2.1954879452-.0025238109,3.7560430128-1.6251000057,3.75494855-3.9041866148Z"/><path class="cls-1" d="M29.9039778735,43.0273079367c-1.6967412594,.0000131334-3.3938152355,.0186057178-5.0900048857-.0120083492-.4713741718-.0085017186-.6615918018,.1574262618-.7970162475,.5902171472-.6553796311,2.0944565989-1.3633241202,4.172614589-2.0055811426,6.2709499329-.1805097452,.5897487209-.4773608832,.7867548168-1.0763625479,.7747814901-1.6243972701-.0324571275-3.2498725861-.0096224395-4.8749166837-.011631857-.9372508571-.0011601212-1.0008851116-.0893731128-.68716283-.9925734562,2.2698862411-6.5349278573,4.542129955-13.0690370629,6.8138844441-19.6033170034,.9165184488-2.6361938123,1.8328486499-5.2724511029,2.7509847146-7.9080823658,.3550130787-1.0191139654,.6502137668-2.051543058,.6116076869-3.1440795637-.0166971241-.4725392654,.1894274279-.6236417721,.6425306381-.6212843182,2.4375043093,.0126912885,4.875260345,.0207814923,7.3125610842-.0048703203,.5560943461-.0058531399,.6587461986,.3343184822,.7984521826,.729328816,2.2907893856,6.4770859639,4.5862849612,12.9525061689,6.8817323803,19.427946074,1.323082913,3.7324033056,2.6490289405,7.4637997134,3.9711968826,11.1965269774,.3055740063,.8627055458,.2622726811,.919599642-.6723241037,.9204752052-1.8401246384,.0017204817-3.6805163258-.016793302-5.5202163126,.0111678085-.5442588257,.0082696943-.8065052397-.1775729708-.97889626-.6995837455-.6956668057-2.1065043484-1.4535778983-4.1924986291-2.1447289507-6.3004170121-.1657082306-.5053969631-.4103294161-.6446684221-.9174312307-.6352561178-1.6722668829,.0310387151-3.3454662481,.0116975242-5.0183088184,.0117106577Zm.0327419483-18.6838333736c-.2116275108,.0177542326-.2097406569,.1272434097-.2355896787,.2125101311-1.1824400688,3.900518005-2.3594603579,7.8026930133-3.5521358425,11.7000765021-.1446354444,.4726377663,.0029178378,.570337485,.4547886829,.5667257868,2.1727625202-.0173843072,4.3459518808-.0243888127,6.5184976973,.0035110084,.5637249406,.0072409076,.6207026726-.1511090734,.4635509519-.6493789521-.8602783847-2.7276638989-1.6916147958-5.464455544-2.532503678-8.1982308739-.3745404835-1.2176522968-.7481594293-2.4355913406-1.1166081329-3.6352136024Z"/><path class="cls-1" d="M55.3967454514,38.4459935834c.0000788013,3.7753496801-.0141141919,7.5507956721,.0131860875,11.3259483505,.0048988154,.6781412029-.1835457849,.9221781756-.8866680711,.903970839-1.719274059-.0445092548-3.4408727569-.0360688257-5.1606852916-.0036510985-.6376077446,.0120214826-.8323520726-.2405609868-.831515903-.8431892423,.0105856439-7.6223642074,.0119515335-15.2447568705-.0024165738-22.8671101334-.0011338634-.6030244478,.217176437-.7823704341,.7999822416-.7728224175,1.7677412485,.0289548747,3.5365725818,.0295984137,5.3042963189,.0002079463,.5968805958-.0099266977,.7784344585,.1949923005,.7750197347,.7873020438-.0220424803,3.8230087735-.0112817223,7.646207982-.0111985431,11.4693437121Z"/><path class="cls-1" d="M55.8236122,19.7258900046c.0010944628,2.2790866091-1.5594606049,3.9016628039-3.75494855,3.9041866148-2.2850193779,.0026266896-3.8541112551-1.5755584514-3.8557967278-3.8781495544-.0016110492-2.1912041427,1.6498369628-3.825673769,3.8601176668-3.8204357122,2.2482892072,.0053288965,3.7495375261,1.5240983193,3.750627611,3.7943986518Z"/><path class="cls-2" d="M29.9367198219,24.3434745631c.3684487037,1.1996222618,.7420676495,2.4175613056,1.1166081329,3.6352136024,.8408888822,2.7337753299,1.6722252933,5.4705669751,2.532503678,8.1982308739,.1571517207,.4982698787,.1001739887,.6566198597-.4635509519,.6493789521-2.1725458165-.0278998211-4.3457351772-.0208953156-6.5184976973-.0035110084-.4518708452,.0036116982-.5994241273-.0940880205-.4547886829-.5667257868,1.1926754846-3.8973834888,2.3696957737-7.7995584971,3.5521358425-11.7000765021,.0258490218-.0852667214,.023962168-.1947558985,.2355896787-.2125101311Z"/></g></svg>