<?xml version="1.0" encoding="UTF-8"?><svg id="Layer_2" xmlns="http://www.w3.org/2000/svg" viewBox="0 0 37.6569255596 36.9096944112"><defs><style>.cls-1{fill:#333434;}.cls-2{fill:#1a79e8;}.cls-3{fill:#fefefe;}</style></defs><g id="Layer_1-2"><rect class="cls-2" width="36.9096944112" height="36.9096944112" rx="2.2754577211" ry="2.2754577211"/><path class="cls-1" d="M34.3874228578,10.2396400164c-2.0038021873,1.8566929753-4.011043636,3.709691305-6.0104740158,5.5710852885-2.1275279238,1.980648936-4.2457423437,3.9713076914-6.3740792711,5.9510837823-.2035381223,.1893276743-.4500570495,.3324423856-.6766457953,.4968003132-.6160183512-.7596781401-1.3955191854-1.3514631308-2.0951478552-2.0247056927-.3494536708-.3362785199-.6467445455-.7563202771-1.1401450567-.921568985,1.9849320796-1.8567388097,4.0051574377-3.6775116186,5.944370853-5.5808380372,1.7640302701-1.7313839055,3.6956079671-3.2814272672,5.4008838555-5.0730793332,1.5189579847-1.3989156136,3.0518483657-2.783174205,4.5479390479-4.2061428787,.4202514454-.3997152276,.7300719122-.4899849473,1.2183314648-.1105962494,.8115222312,.6305707992,1.5568376834,1.3173105753,2.2249510816,2.0978134444,.3229637857,.3773002467,.3101472564,.6246701272-.0706104684,.9743262935-1.0060616834,.9238646872-2.0538288951,1.8062293762-2.9693738402,2.8258220542Z"/><path class="cls-3" d="M16.7382009469,23.8558405738c-.3738644368,1.4843684261-1.9775018827,2.5580270382-3.7123999192,2.5407523058-1.087697063-.0108285205-1.9812406316-.3982566669-2.8038856677-1.0987392226-1.2509609961-1.0651973052-2.4074614978-2.2234236639-3.5449492845-3.4031676107-1.0019097689-1.0391265789-2.2722721704-1.2029907511-3.5055677956-.4313906844-.2733670394,.1710285669-.5471846459,.3416213433-.8255567285,.5042653024-.1941988125,.1134623949-.411580483,.1506823835-.5701374271-.0353199423-.1423591846-.166998377-.0440196292-.3489007865,.0432248183-.5287915875,1.1836818166-2.4406547316,4.3333276843-3.1532818949,6.4898450498-1.4273670386,1.3317144874,1.0658004392,2.5968042942,2.2129333168,3.8001899277,3.4247723568,.9255835142,.9320825053,2.0757795613,1.1227739361,3.2841745956,.5614061428,.3398461789-.157878155,.6444243642-.4163785759,1.049645488-.4105076073,.0476537978,.1510170706,.1515439574,.2469850947,.2954169431,.3040875856Z"/><path class="cls-3" d="M18.0909308637,19.6814110698c.4315928122,.1445481975,.6916424104,.5119718202,.9973204328,.8061251273,.6119870132,.5889062618,1.2938406991,1.106559046,1.8326876734,1.7710732033-.8348791988,.3831260233-1.6681827197,.7696128624-2.5058646729,1.1463763455-.19620327,.0882493041-.3969209268,.2361565742-.6272627222,.0724841497-.2787049968-.3352378851-.5992264626-.6248467697-.953689494-.8775668664-.0354736683-.1395854161-.0925083271-.2575381956-.0059645683-.4221728454,.4338534916-.825310365,.8441798815-1.662986719,1.2627733512-2.4963191141Z"/><path class="cls-1" d="M16.8341220808,22.5999030293c.3544630314,.2527200967,.6749844972,.5423289812,.953689494,.8775668664-.3187401132,.2128260981-.6636497259,.3531366695-1.0498476768,.37821728-.1436359369-.0569490927-.2475260965-.1529171168-.2951798943-.3039341874,.0476572838-.3514841522,.2597968623-.6350861015,.391338077-.951849959Z"/></g></svg>