<?xml version="1.0" encoding="UTF-8"?><svg id="Layer_2" xmlns="http://www.w3.org/2000/svg" viewBox="0 0 80.9018315287 78.9383422605"><defs><style>.cls-1{fill:#001834;}.cls-2{fill:#00a7fd;}</style></defs><g id="Layer_1-2"><path class="cls-1" d="M80.5208211684,11.8936203666c.3148557037,1.802508851,.3824153399,3.6776572543,.3809884178,5.6057934939-.0029358675,3.9656527572-.005871136,7.9313054513-.0088064045,11.8969581455-.0081745027,11.0440386701-.0163490004,22.0880773402-.024523498,33.1321160103-.0018588244,2.5114320276-.0518873988,4.7656748821-.9604689861,7.1094988118-.7195033405,1.856067931-1.784969452,3.5781967169-3.1753327074,5.0069243706-2.7841698318,2.8609936404-6.6751998997,4.2872364293-10.6336093021,4.2889466206-17.1048905729,.0073980766-34.2097883752,.0062269153-51.3146693089-.0079185927-.9420937256-.0007807578-1.9026422427-.0594327648-2.8230835135-.2463513876-6.5605113113-1.3322759184-11.4081568898-6.3995141203-11.8607939834-13.1710149782C-.0007408114,63.993643744-.0003653737,62.473971164,.0000532057,60.9556617038,.0043064671,45.5230386849,.0085590097,30.0904157333,.0128115523,14.6577927818,.0150737853,6.448071514,6.5823905162,.0084097808,14.7728672098,.004664314,31.8809158452-.0031567573,48.9889729149-.0013444394,66.0970107061,.0116357059c.916603087,.0006955138,1.8508597762,.0504155686,2.7467885861,.2286562807,3.5628325095,.70880833,6.8695432656,2.4326542685,9.0709329883,5.3816300937,1.4608505906,1.9569515709,2.219691941,4.0596249185,2.6060888879,6.2716982862ZM18.1937621858,37.9680930107c0,5.6310905915,.0089536674,11.2622173299-.0117972491,16.8932332177-.0024772898,.6725887849,.1796432697,.9343939442,.8901338294,.917829,1.8146581279-.0423063951,3.6322538202-.0542589879,5.446027546,.0040388197,.8271689796,.0265848798,1.0226073814-.2756904092,1.0138139667-1.0478857409-.0356483925-3.1309045773,.0095019003-6.2627682538-.0324746662-9.3935137845-.0097260131-.7255079258,.2235850403-.877219102,.8956004946-.8480171826,2.2615679486,.0982570605,4.518892213,.0789786849,6.7682833667-.2790882229,5.8962267641-.9386062692,10.5357133464-4.8879405423,10.4997589074-11.9430572596-.0192929784-3.7860946283-1.2834770786-7.0060291536-4.3765010676-9.348968688-2.3201553695-1.757498646-5.0113716343-2.509278178-7.864597348-2.7154989611-4.0765032052-.2946265936-8.1518231912,.0568495196-12.2279396211,.0793979896-.7999910867,.0044243872-1.0230025911,.2254895193-1.0181697072,1.0251782243,.0335458289,5.5519504502,.0176976809,11.1041997151,.0178615484,16.6563525882Zm29.0746896122,13.4305285192c0,.8418336437,.0314770028,1.6852191966-.010092305,2.5249948737-.0324746662,.6560913151,.2367787772,1.0036997042,.8380758021,1.2409152954,2.8189195882,1.1120971902,5.7524499751,1.4121699248,8.7474258234,1.2820264313,1.8259890778-.0793449741,3.6111076941-.4005612671,5.2699809251-1.198767947,2.7673784661-1.3315863151,4.4377561537-3.4830385651,4.7060408514-6.5948768289,.2826905715-3.278919125-1.0839251227-5.6906198053-3.928730943-7.3101913137-1.3046400734-.7427427935-2.6397546667-1.4094564935-4.0538822723-1.9187333398-1.0642176561-.3832613348-2.1002067399-.8428288898-3.0818978734-1.4007715853-.761559358-.4328308579-1.5171761123-.9483153411-1.3637769322-2.0055366354,.1219414558-.8404672888,.7689382113-1.2767971719,2.0105327062-1.4472204213,.0521001991-.0071498675,.1045136741-.0126948103,.156956067-.0165986813,2.6971227212-.2006469227,5.289866718,.216332291,7.7619946571,1.3261425839,.9634873914,.4325368627,1.1525662916,.3204379286,1.1549857458-.7409233968,.0034845924-1.5258135388-.0165843464-3.0519162532,.008125896-4.5773345852,.0104344987-.6437627939-.2170231143-1.0068179814-.8560771197-1.2106241479-2.5962671462-.8279917701-5.2586451556-.9804162462-7.9518109607-.8500799688-1.8072792745,.0874611702-3.5258966376,.5117733959-5.1329781258,1.3747867449-5.0330623786,2.7027921018-5.9456303802,10.0020212492-.5321979912,13.4491538398,1.6073224697,1.0234985959,3.3304461868,1.7796446799,5.0947199038,2.4702876635,.9758063654,.3819913719,1.9823282321,.731652908,2.7851436219,1.4428755575,1.085067375,.9612728193,.8275400911,2.2816680374-.5346608221,2.7675602142-.6731577065,.2401073476-1.3807564883,.3324941427-2.0935460114,.3390825275-2.8909489568,.0267391069-5.6301566863-.5869686996-8.1887777034-1.9581335197-.6926627487-.3711954816-.7923134163-.3107722331-.8029937161,.4864994456-.0112827536,.8416842363-.0025303057,1.6836335502-.0025592235,2.5254671939Z"/><path class="cls-2" d="M18.1936802521,37.9680930107c-.0000819337-5.5521528731,.0157662143-11.1044021381-.0177796147-16.6563525882-.0048328839-.799688705,.2181786205-1.0207538371,1.0181697072-1.0251782243,4.0761164299-.02254847,8.1514364159-.3740245832,12.2279396211-.0793979896,2.8532257137,.206220783,5.5444419785,.958000315,7.864597348,2.7154989611,3.093023989,2.3429395344,4.3572080891,5.5628740597,4.3765010676,9.348968688,.035954439,7.0551167173-4.6035321433,11.0044509904-10.4997589074,11.9430572596-2.2493911537,.3580669078-4.5067154181,.3773452834-6.7682833667,.2790882229-.6720154543-.0292019193-.9053265077,.1225092569-.8956004946,.8480171826,.0419765665,3.1307455307-.0031737263,6.2626092072,.0324746662,9.3935137845,.0087934147,.7721953317-.1866449871,1.0744706208-1.0138139667,1.0478857409-1.8137737258-.0582978076-3.6313694181-.0463452148-5.446027546-.0040388197-.7104905597,.0165649442-.8926111192-.2452402151-.8901338294-.917829,.0207509165-5.6310158878,.0117972491-11.2621426262,.0117153154-16.8932332177Zm7.3707419224-5.5465476854c0,1.6294107092,.0402607783,3.2602745261-.0183411015,4.8875742532-.0261730001,.7268188553,.2486615747,.9075656748,.8997044095,.8843376421,.9448884397-.0337202886,1.8938639255,.0282837867,2.8373498528-.0215218965,1.584959387-.0836681498,3.128925412-.3674892139,4.5282326557-1.1827379777,1.1059436018-.644331506,1.9382695855-1.5132223498,2.3111571205-2.7719508642,1.0358035281-3.4964514948-.7667308208-6.4976752595-4.3297048712-7.2429555692-1.9041610647-.3982984678-3.8218508306-.1861688627-5.7354149932-.2037700195-.5196717731-.0047786273-.4961447498,.3259973301-.4950169564,.6839509775,.0052172494,1.6556774959,.0023037831,3.3113790898,.0020338838,4.9670734543Z"/><path class="cls-2" d="M47.2684662569,51.3986215299c.0000144589-.8418336437-.008737989-1.6837829576,.0025447646-2.5254671939,.0106802998-.7972716787,.1103309674-.8576949272,.8029937161-.4864994456,2.5586210171,1.3711648201,5.2978287466,1.9848726266,8.1887777034,1.9581335197,.7127895231-.0065883848,1.4203883048-.09897518,2.0935460114-.3390825275,1.3622009132-.4858921768,1.619728197-1.8062873949,.5346608221-2.7675602142-.8028153898-.7112226495-1.8093372565-1.0608841856-2.7851436219-1.4428755575-1.764273717-.6906429836-3.4873974341-1.4467890677-5.0947199038-2.4702876635-5.4134323891-3.4471325906-4.5008643874-10.746361738,.5321979912-13.4491538398,1.6070814882-.863013349,3.3256988513-1.2873255747,5.1329781258-1.3747867449,2.6931658051-.1303362773,5.3555438145,.0220881988,7.9518109607,.8500799688,.6390540055,.2038061665,.8665116184,.566861354,.8560771197,1.2106241479-.0247102424,1.5254183321-.0046413036,3.0515210465-.008125896,4.5773345852-.0024194542,1.0613613254-.1914983544,1.1734602595-1.1549857458,.7409233968-2.4721279391-1.1098102929-5.0648719359-1.5267895065-7.7619946571-1.3261425839-.0524423928,.003903871-.1048558679,.0094488138-.156956067,.0165986813-1.2415944949,.1704232494-1.8885912504,.6067531325-2.0105327062,1.4472204213-.1533991801,1.0572212942,.6022175742,1.5727057774,1.3637769322,2.0055366354,.9816911335,.5579426955,2.0176802173,1.0175102505,3.0818978734,1.4007715853,1.4141276056,.5092768463,2.7492421989,1.1759905463,4.0538822723,1.9187333398,2.8448058203,1.6195715083,4.2114215145,4.0312721887,3.928730943,7.3101913137-.2682846977,3.1118382639-1.9386623853,5.2632905138-4.7060408514,6.5948768289-1.658873231,.7982066799-3.4439918473,1.1194229729-5.2699809251,1.198767947-2.9949758484,.1301434936-5.9285062353-.1699292411-8.7474258234-1.2820264313-.6012970249-.2372155913-.8705504683-.5848239804-.8380758021-1.2409152954,.0415693078-.8397756771,.010092305-1.68316123,.0101067639-2.5249948737Z"/><path class="cls-1" d="M25.5645571241,32.4215453253c.0001349496-1.6556943645,.0030484159-3.3113959584-.0021688335-4.9670734543-.0011277934-.3579536474-.0246548167-.6887296049,.4950169564-.6839509775,1.9135641626,.0176011569,3.8312539285-.1945284482,5.7354149932,.2037700195,3.5629740504,.7452803097,5.3655083993,3.7465040744,4.3297048712,7.2429555692-.372887535,1.2587285144-1.2052135187,2.1276193582-2.3111571205,2.7719508642-1.3993072437,.8152487638-2.9432732687,1.0990698279-4.5282326557,1.1827379777-.9434859274,.0498056832-1.8924614132-.0121983921-2.8373498528,.0215218965-.6510428348,.0232280327-.9258774096-.1575187868-.8997044095-.8843376421,.0586018798-1.6272997271,.0183411015-3.2581635439,.0184760512-4.8875742532Z"/></g></svg>