<?xml version="1.0" encoding="UTF-8"?><svg id="Layer_2" xmlns="http://www.w3.org/2000/svg" viewBox="0 0 93.9774520857 93.9774520857"><defs><style>.cls-1{fill:#fff;}.cls-2{fill:#00ff42;}.cls-3{fill:#1e1e1e;}</style></defs><g id="Layer_1-2"><circle class="cls-3" cx="46.9887260428" cy="46.9887260428" r="46.9887260428"/><g><path d="M56.3669164283,64.2579385966c-.1852892888,.2469985376-.3705247301,.4852199307-.5999151312,.6793402114-.3352546097,.2823225054-.4852199307,.6175232677-.4411188183,1.0498649415,.0176081364,.1058642086-.0176619839,.2205594092,.008830992,.3264236178,.1940664333,.935169741-.3617475856,1.3762885593-1.1116280378,1.702712177-.2999844894,.1235261925-.4499498103,.0617630963-.4587808023-.2646605215-.0176619839-.3440856017-.0176619839-.6881712034-.008830992-1.0322568051,0-.3440317542-.1499653209-.4499498103-.4675579467-.3264236178-.4676117942,.1676273049-.9528317249,.1500191684-1.4292206636,.1058642086-.397017706-.0264391284-.5382058825-.2117284172-.4676117942-.6087461232,.0705940882-.3969638585,.1764582968-.8028125565,.2823225054-1.1998302625,.1323571845-.5028819146,.2734915135-.5822531473,.8028125565-.520490051,1.5086457438,.2028974252,2.9643593833-.802866404,3.2819520091-2.2497490515,.2293904011-1.0498649415-.1941202808-1.6144561049-1.2615933587-1.6762192011-.397017706-.0176619839-.794035412-.0529321043-1.191053118-.0882560722-1.2880324871-.141134329-2.0379667868-1.1380671662-1.9321025782-2.5584568378,.1323571845-1.6939350326,.78520442-3.1584258165,2.0644597627-4.3141549667,.2205594092-.2028974252,.3175926258-.4234568344,.3087616338-.7146103318-.0087771445-.3705247301,.008830992-.7411033077,0-1.1116280378-.0087771445-.3352546097,.1235261925-.5822531473,.405848698-.7587114441,.2028974252-.1235261925,.397017706-.2558295295,.5910841393-.3705247301,.388186714-.2382213931,.5469830269-.1500191684,.5646450109,.3087616338,.008830992,.3352546097,.008830992,.6616782275,.008830992,.9969328372-.008830992,.3087616338,.1146952006,.4234568344,.4322878264,.3264236178,.3440856017-.1146952006,.6969483479-.141134329,1.0586959335-.1146952006,.4499498103,.0264929759,.5646450109,.1676273049,.4763889387,.5999151312-.0617630963,.3440856017-.141134329,.6705092195-.2205594092,1.0057638292-.1499653209,.6881173559-.2028974252,.7234413238-.8998457731,.6969483479-1.2969173266-.0441011123-2.496747589,.802866404-2.7702391025,1.9674265461-.2028974252,.8469136688,.1058642086,1.305694471,.9528317249,1.4115586796,.529321043,.0705940882,1.0674730779,.0705940882,1.5968479685,.1587963129,1.0410339496,.1852892888,1.5968479684,.7411033077,1.7556442813,1.7909682492,.2734915135,1.7909144017-.255883377,3.3701542337-1.332187447,4.7817129134Z"/><path class="cls-1" d="M74.655685405,34.4559253835v-.0176081364c.008830992-.0794250802,.008830992-.1587963129,.008830992-.2382213931-.0617630963-.6793402114-.0529321043-1.3586265753-.2911534974-2.0026966664-.6969483479-1.8261845221-1.8791704739-3.2377970492-3.564220667-4.2435608784-1.8262383696-1.0851350619-3.6524767392-2.1702701238-5.4874922532-3.2554590332-4.6935106887-2.8055092229-9.3958523694-5.5756944779-14.0893630581-8.3724265563-.7763734281-.4675579467-1.5703549925-.8734066447-2.496747589-.935169741-.3352546097-.0264391284-.6705092195-.0264391284-1.0057099817-.0970332166h-1.4027815352c-.0617630963,.0529321043-.1235261925,.0529321043-.1940664333,.0441011123h-.1235261925c-1.0410339496,.0264929759-2.0115276584,.2646605215-2.9202044234,.802866404-3.7406789638,2.23203322-7.4814117752,4.4552892956-11.222090739,6.6697143792-2.6113889421,1.5439158642-5.2140007397,3.1054398647-7.8254435293,4.6405247369-1.1645601421,.6793402114-2.3114583002,1.3763424068-3.1584258165,2.4791394526-.7587114441,.9968789897-1.3850657037,2.0467439312-1.5085918963,3.3259992739-.0353239679,.3352546097-.0264929759,.6793402114-.0970332166,1.0145948212v25.3996021743c.0529321043,.0529321043,.0352701204,.1323571845,.0441011123,.1941202808,.0529321043,.6528472355,.0352701204,1.323356455,.2823225054,1.9497107146,.7410494602,1.8791704739,2.0203048028,3.2731210171,3.7495099558,4.2964929827,5.8845099592,3.4760184423,11.7690199184,6.9785298606,17.6535298776,10.4721564393,.9087306126,.5382058825,1.7997992412,1.1116280378,2.7526309661,1.579239832,.7851505725,.388186714,1.6321180888,.4587269548,2.4878627496,.5028819146,1.729205153,.0793712327,3.3878162177-.0617630963,4.9317320818-1.0234258131,2.6732058859-1.6586110647,5.3992900285-3.2289660573,8.1077660348-4.8258140257,3.7406789638-2.2144250836,7.4637497912-4.4465121512,11.204428755-6.6432752508,.9440007329-.5558140189,1.8085763856-1.1998302624,2.5055247335-2.0644059152,.7411033077-.935169741,1.3410184389-1.9497645621,1.5615778481-3.1407638326,.1146952006-.5911379868,.0882022247-1.191053118,.141134329-1.7909682492v-24.411500329c-.0441011123-.1058642086-.0441011123-.2117284172-.0441011123-.3088154813Zm-18.2887689767,29.8020132131c-.1852892888,.2469985376-.3705247301,.4852199307-.5999151312,.6793402114-.3352546097,.2823225054-.4852199307,.6175232677-.4411188183,1.0498649415,.0176081364,.1058642086-.0176619839,.2205594092,.008830992,.3264236178,.1940664333,.935169741-.3617475856,1.3762885593-1.1116280378,1.702712177-.2999844894,.1235261925-.4499498103,.0617630963-.4587808023-.2646605215-.0176619839-.3440856017-.0176619839-.6881712034-.008830992-1.0322568051,0-.3440317542-.1499653209-.4499498103-.4675579467-.3264236178-.4676117942,.1676273049-.9528317249,.1500191684-1.4292206636,.1058642086-.397017706-.0264391284-.5382058825-.2117284172-.4676117942-.6087461232,.0705940882-.3969638585,.1764582968-.8028125565,.2823225054-1.1998302625,.1323571845-.5028819146,.2734915135-.5822531473,.8028125565-.520490051,1.5086457438,.2028974252,2.9643593833-.802866404,3.2819520091-2.2497490515,.2293904011-1.0498649415-.1941202808-1.6144561049-1.2615933587-1.6762192011-.397017706-.0176619839-.794035412-.0529321043-1.191053118-.0882560722-1.2880324871-.141134329-2.0379667868-1.1380671662-1.9321025782-2.5584568378,.1323571845-1.6939350326,.78520442-3.1584258165,2.0644597627-4.3141549667,.2205594092-.2028974252,.3175926258-.4234568344,.3087616338-.7146103318-.0087771445-.3705247301,.008830992-.7411033077,0-1.1116280378-.0087771445-.3352546097,.1235261925-.5822531473,.405848698-.7587114441,.2028974252-.1235261925,.397017706-.2558295295,.5910841393-.3705247301,.388186714-.2382213931,.5469830269-.1500191684,.5646450109,.3087616338,.008830992,.3352546097,.008830992,.6616782275,.008830992,.9969328372-.008830992,.3087616338,.1146952006,.4234568344,.4322878264,.3264236178,.3440856017-.1146952006,.6969483479-.141134329,1.0586959335-.1146952006,.4499498103,.0264929759,.5646450109,.1676273049,.4763889387,.5999151312-.0617630963,.3440856017-.141134329,.6705092195-.2205594092,1.0057638292-.1499653209,.6881173559-.2028974252,.7234413238-.8998457731,.6969483479-1.2969173266-.0441011123-2.496747589,.802866404-2.7702391025,1.9674265461-.2028974252,.8469136688,.1058642086,1.305694471,.9528317249,1.4115586796,.529321043,.0705940882,1.0674730779,.0705940882,1.5968479685,.1587963129,1.0410339496,.1852892888,1.5968479684,.7411033077,1.7556442813,1.7909682492,.2734915135,1.7909144017-.255883377,3.3701542337-1.332187447,4.7817129134Zm8.7517822783-1.0939660539c-1.4115586796,.8293055324-2.7966782309,1.6938811851-4.1906287741,2.5408487014-.4411188183,.2646605215-.5469830269,.2028974252-.5646450109-.2999844894v-.0793712327c-.1146413531-.7411033077,.1588501604-1.2086612544,.8469675163-1.579239832,1.3498494309-.7322184682,2.637881918-1.5703549925,3.961238373-2.3555594126,.1587963129-.0882022247,.3088154813-.2911534974,.5117129066-.1764582968,.1940664333,.1146952006,.0970332166,.3529165937,.1235261925,.538152035v.2999844894c.123472345,.5117129066-.1941202808,.8293055324-.6881712034,1.1116280378Zm4.0230014693-29.8108442051c-4.4464583036,2.7349689821-8.8929166073,5.4787151087-13.3217667745,8.2312922273-2.3202892922,1.4468826475-4.7023416807,2.7966782309-6.9520368847,4.367087071-1.314525463,.917507757-2.2320870675,2.1438309954-2.4879165971,3.7847800762-.0352701204,.2293904011-.0529321043,.4587808023-.0529321043,.6970021954v23.7498221015c0,1.2086612544,.3705247301,2.240864212,1.5350848722,2.9025424395-.2558295295,.1323571845-.4675579467,.1411881765-.6881173559,.1500191684-1.2615933587,.0352701204-2.4085453644-.3264236178-3.4848494343-.9616627169-6.599120291-3.9171372607-13.1982944295-7.8166125374-19.7797527365-11.751411782-2.108560875-1.2527623667-3.2113579208-3.176033953-3.2201889128-5.6375114216-.0264929759-7.913645754-.0176619839-15.8273453555-.008830992-23.7498221015,.008830992-2.5055247335,1.1116280378-4.4552892956,3.2642900251-5.7433756302,6.590289299-3.9347453971,13.1982944295-7.8518826577,19.8150767044-11.7601889264,2.1526619873-1.2704243507,4.349425087-1.2528162143,6.4932560824,.0176081364,5.7168826543,3.3789852257,11.4161571722,6.7755785878,17.1242088346,10.1633948055,.9440007329,.5646450109,1.8968324578,1.1116280378,2.8320021988,1.6938811851,1.3851195513,.8557985083,2.3114583002,2.0908988911,2.7878472389,3.6524767392,.0441549598,.141134329,.0705940882,.2823225054,.1235261925,.529321043-1.3939505432-1.2351003828-2.3996605249-1.305694471-3.9789003569-.3352546097Z"/><path class="cls-2" d="M65.1186987066,63.1639725428c-1.4115586796,.8293055324-2.7966782309,1.6938811851-4.1906287741,2.5408487014-.4411188183,.2646605215-.5469830269,.2028974252-.5646450109-.2999844894v-.0793712327c-.1146413531-.7411033077,.1588501604-1.2086612544,.8469675163-1.579239832,1.3498494309-.7322184682,2.637881918-1.5703549925,3.961238373-2.3555594126,.1587963129-.0882022247,.3088154813-.2911534974,.5117129066-.1764582968,.1940664333,.1146952006,.0970332166,.3529165937,.1235261925,.538152035v.2999844894c.123472345,.5117129066-.1941202808,.8293055324-.6881712034,1.1116280378Z"/></g></g></svg>