<?xml version="1.0" encoding="UTF-8"?><svg id="Layer_2" xmlns="http://www.w3.org/2000/svg" viewBox="0 0 93.9774520857 93.9774520857"><defs><style>.cls-1{fill:#004481;}.cls-2{fill:#006bcc;}.cls-3{fill:#6599d1;}.cls-4{fill:#00599b;}.cls-5{fill:#fefefe;}</style></defs><g id="Layer_1-2"><circle class="cls-2" cx="46.9887260428" cy="46.9887260428" r="46.9887260428"/><g><path class="cls-3" d="M47.5305256549,16.1642642792h.2407998116c-.0453226574,.1498075512,.1159062204,.1518911859,.1637659913,.1653866327,.7239352979,.2041363838,1.3242281083,.6535575302,1.9733470341,.9994186915,1.3052888592,.6954831221,2.5846076704,1.4397535212,3.8740455411,2.1649568468,1.4759974659,.8301283819,2.9497315547,1.6642935,4.4274743196,2.4913056236,1.2386147659,.6931896212,2.4776741237,1.3857600786,3.7236228194,2.0656248186,1.4697768531,.8020044312,2.9235263506,1.6325308142,4.3960809847,2.4300513609,2.2622674929,1.225217538,4.4970143775,2.501279993,6.7422110097,3.757962807,.4050342779,.2267067074,.7735862967,.4988144678,1.0271249533,.9002254785-.0546443908,.0243402999-.1118681498,.0441581324-.1635657412,.0736611923-2.67003546,1.5237702039-5.3376458731,3.0518111677-8.0112637889,4.5692693924-.4147565115,.2354016401-.8037524108,.5227634269-1.2636882814,.6748076238-.064326207-.088408129-.1345313157-.173156394-.1920637169-.2657774085-1.0764893556-1.7330594865-2.3600666962-3.2959573472-3.9104873827-4.6224779715-5.1369952855-4.395142914-11.0547583134-5.9791630768-17.6795180539-4.706481219-4.4762563432,.8599320668-8.2809841223,3.0448368486-11.2436804923,6.5090670967-5.1348820959,6.0041335641-6.4228768799,12.8300462159-4.0405580817,20.3536167565,.35191932,1.1113897065,.8749890829,2.1511474976,1.4011259791,3.1878223311-.4757032686,.1090536566-.8505686766,.4201567897-1.2632133764,.6494825412-1.3953545511,.7754575567-2.7758791135,1.577625506-4.1612712228,2.3709855296-1.204509558,.6897814647-2.4062222745,1.3844794937-3.6140744819,2.0683412387-.1460266352,.0826739747-.282600295,.2344480913-.4858305666,.1626434715,0,0,.0026519645,.0008231019,.0026520506,.0008231019-.0174322064-.0231717892-.034864499-.0463472529-.052296361-.069519042-.059203525-.1307666446-.1205957065-.2605999503-.1766722759-.3926967864-.0272659325-.0642203234,.0033525815-.1748062724-.1284444421-.1446638388,0-.0602040269,0-.1204080538-.0000000718-.1806120806,.0140658463-.0011097178,.0281317572-.0022194356,.0421981992-.0033254788-.0140653798-.0189607409-.0281312979-.0379214818-.0421976681-.0568785481-.0000004593-9.692848328-.0000004593-19.3856966561-.0000004593-29.0785449841,.0951372779,.0459007936,.1006149474-.0237156244,.1203255727-.0876015626,.2607090938-.8450454968,.8169014441-1.4399277185,1.576244494-1.8651287634,8.1261348862-4.5502985464,16.2519683639-9.1011340383,24.3771946613-13.6530561671,.2634501174-.1475898237,.5358030965-.2687976402,.8262722784-.3524557516,.0515083642-.0148348248,.1795471679,.0235886223,.129741848-.116232933h1.264199011c.0401326895,.0265585298,.0802672163,.0892641441,.1203999058,0Z"/><path class="cls-4" d="M64.6604986797,36.4569310726c.4599174991-.1520405224,.8489133984-.4394023091,1.2636699099-.6748039493,2.6736179157-1.5174582247,5.3412283288-3.0454991885,8.0112637889-4.5692693924,.0516975914-.0295030598,.1089213503-.0493208923,.1635951357-.0735142098,.3228251869,.270552502,.4819450087,.6377827352,.6178688892,1.0224799998,.0250955614,.0710274498-.028137893,.2256089319,.1444078704,.1973239895v29.1989530379c-.1259958853-.0326080649-.1100787591,.0761406031-.1329954526,.1388727288-.0811067969,.2220464439-.1609055382,.4442545685-.2943896745,.6421223932-.1494196341,.0061365189-.2676553692-.0747442695-.3898042483-.1421835093-1.4898422793-.8225801422-2.9791076914-1.6462075346-4.4688544385-2.4689567067-1.1392282592-.6291695615-2.2749218287-1.2649202638-3.4204625585-1.8823973684-.4383713245-.2362927215-.8519704272-.5235663187-1.3300243379-.6833803774-.0346010105-.0975633006-.1311435986-.1189161815-.2070843107-.1607547466-2.8533175676-1.5720585442-5.7075279934-3.142492932-8.5621940341-4.7121042178-.0826242884-.0454286123-.1615228229-.1300758269-.2701685997-.0538470343-.0187132788-.1017559761-.0987986166-.1440318141-.1792256655-.1875643523-.2289391275-.1239135861-.457643099-.2482828179-.6855717903-.3740373596-1.5252259186-.841474741-3.0496177681-1.6844634016-4.5755050631-2.5247328861-1.0612060485-.5843729738-2.1300032287-1.1553043992-3.1824846197-1.7549304806-.2459511992-.1401257545-.5528170053-.2033612952-.717830426-.4716043348,.0821705107-.0561344493,.1608871666-.1183227397,.2470240987-.1675085919,1.7410955129-.9942134301,3.4823508585-1.9881549427,5.2250520464-2.9795499836,1.2873508606-.7323567795,2.5768144514-1.4609985767,3.8653410923-2.1912939268,.0638522206-.0275390063,.131066438-.0491876894,.191067978-.0834713547,2.8364157254-1.6207005612,5.6722876524-3.2423601831,8.5076451755-4.8649200728,.0744930325-.0426267587,.1752059665-.0638767518,.1796592345-.1789272939Z"/><path class="cls-1" d="M64.8247735634,57.1621777085c.4780539107,.1598140587,.8916530134,.4470876559,1.3300243379,.6833803774,1.1455407298,.6174771046,2.2812342994,1.2532278069,3.4204625585,1.8823973684,1.4897467472,.8227491721,2.9790121592,1.6463765645,4.4688544385,2.4689567067,.1221488791,.0674392398,.2403846142,.1483200281,.3898079226,.1421871839-.2935004906,.5627408262-.7577022393,.9477761505-1.3003358846,1.2521768821-2.9800777102,1.6717383927-5.9601774662,3.3434363652-8.9397150523,5.0161411678-4.6571446355,2.6145171386-9.3106076088,5.2356337909-13.9737450497,7.8394248825-.8356436151,.4666032557-1.6195675929,1.0480255561-2.5766656417,1.273118212-.0431419523,.0101454662-.0602146502,.0478979181-.052735585,.0932273173h-1.2039990581c.0020723128-.1217566181-.0983650476-.1052284374-.1698322829-.1226495367-.2841934544-.069250799-.5559934493-.1724435289-.8106288885-.3144800557-1.0067490476-.5615612918-2.0111575575-1.1273299572-3.0163670678-1.6916508452-5.4981049822-3.0866101902-10.9963606113-6.1729484629-16.4941780785-9.2600730918-1.7481152889-.9815931463-3.4989840166-1.9583983381-5.2401643832-2.9521616344-.5296038406-.3022621364-.9658864327-.7126298924-1.1846469367-1.3080155291,.2032302715,.0718046197,.3398039314-.0799694969,.4858305666-.1626434715,1.2078522074-.6838617451,2.4095649239-1.378559774,3.6140744819-2.0683412387,1.3853921092-.7933600237,2.7659166716-1.5955279729,4.1612712228-2.3709855296,.4126446998-.2293257516,.7875101078-.5404288846,1.263238178-.6494751921,.0292640701,.0392186022,.0622676728,.076192047,.0872089131,.117971819,3.78918084,6.3484822986,9.3457946723,9.8922227232,16.7356328365,10.4296421414,4.0632892224,.2955046166,7.8754593236-.6557292969,11.4068934994-2.6864136224,3.2167696393-1.8497488833,5.734581964-4.4073397045,7.5997149531-7.6117343111Z"/><path class="cls-5" d="M64.8247735634,57.1621777085c-1.8651329891,3.2043946066-4.3829453139,5.7619854278-7.5997149531,7.6117343111-3.5314341758,2.0306843254-7.343604277,2.9819182389-11.4068934994,2.6864136224-7.3898381642-.5374194182-12.9464519965-4.0811598428-16.7356328365-10.4296421414-.0249412403-.0417797721-.057944843-.0787532168-.0872089131-.117971819-.5261616978-1.0366821826-1.0492314607-2.0764399738-1.4011507807-3.1878296803-2.3823187982-7.5235705406-1.0943240142-14.3494831923,4.0405580817-20.3536167565,2.96269637-3.464230248,6.7674241491-5.6491350298,11.2436804923-6.5090670967,6.6247597405-1.2726818578,12.5425227684,.311338305,17.6795180539,4.706481219,1.5504206865,1.3265206243,2.8339980271,2.889418485,3.9104873827,4.6224779715,.0575324013,.0926210145,.1277375099,.1773692795,.1920637169,.2657774085-.0044348964,.1150468675-.1051478303,.1362968607-.1796408629,.1789236193-2.8353575231,1.6225598897-5.6712294501,3.2442195116-8.5076451755,4.8649200728-.06000154,.0342836652-.1272157574,.0559323483-.1910496064,.083460331-.1331167049-.055335232-.1696136613-.1915971843-.243265276-.2953227257-2.3747308815-3.3444009378-5.6120546306-4.8933483232-9.6924165508-4.5089119525-2.6674064887,.2513124944-4.8779304613,1.487753064-6.6465925115,3.5076102919-2.7478592578,3.1381367385-3.2653844816,7.8518228553-1.2591413184,11.5250291295,.0113701632,.0277870393,.0200470546,.0570659508,.0344907811,.0831516677,2.8281172883,5.1070755582,9.2014437538,6.862961425,14.2406729048,3.910108973,1.4953390524-.876221401,2.6984268807-2.0615800443,3.5694559722-3.57046919,.1086237309-.076192047,.1875222654,.0084551676,.2701465538,.0538837799,2.8546660407,1.5696112858,5.7088764665,3.1400456736,8.5621940341,4.7121042178,.0759407121,.0418385651,.1724833001,.0631914459,.2070843107,.1607547466Z"/><path class="cls-3" d="M37.9407290067,51.8126435135c-2.0062431632-3.6732062742-1.4887179394-8.386892391,1.2591413184-11.5250291295,1.7686620502-2.019857228,3.9791860228-3.2562977975,6.6465925115-3.5076102919,4.0803619202-.3844363706,7.3176856694,1.1645110147,9.6924165508,4.5089119525,.0736516147,.1037255414,.1101485711,.2399874938,.243265276,.2953227257-1.2885450125,.7303063738-2.5780086033,1.458948171-3.8653594639,2.1913049505-1.7427011879,.9913950409-3.4839565335,1.9853365535-5.2250520464,2.9795499836-.0861369321,.0491858522-.1648535881,.1113741426-.2470222616,.1675196156-.045739692,.0197323989-.0938713621,.0352574242-.1368810392,.0597741031-2.7139563668,1.5470311012-5.4276169514,3.0945839902-8.1405298132,4.6434486979-.0850291266,.0485483156-.1855289503,.0829275194-.2265710325,.1868073925Z"/><path class="cls-1" d="M37.9407290067,51.8126435135c.0410420822-.103879873,.1415419059-.1382590769,.2265710325-.1868073925,2.7129128618-1.5488647077,5.4265734464-3.0964175967,8.1405298132-4.6434486979,.043009677-.0245166789,.0911413472-.0400417042,.1368810392-.0597741031,.1650115836,.268232016,.4718773896,.3314675567,.7178285888,.4715933112,1.052481391,.5996260815,2.1212785712,1.1705575068,3.1824846197,1.7549304806,1.5258872951,.8402694846,3.0502791445,1.6832581452,4.5755050631,2.5247328861,.2279286913,.1257545417,.4566326628,.2501237736,.6855717903,.3740373596,.0804270489,.0435325382,.1605123866,.0858083762,.1792256655,.1875643523-.8710070457,1.5088524-2.074094874,2.6942110433-3.5694339264,3.5704324444-5.039229151,2.9528524521-11.4125556165,1.1969665853-14.2406729048-3.910108973-.0144437265-.026085717-.0231206179-.0553646285-.0344907811-.0831516677Z"/></g></g></svg>