<?xml version="1.0" encoding="UTF-8"?><svg id="Layer_2" xmlns="http://www.w3.org/2000/svg" viewBox="0 0 85.2459016393 59.7986380995"><defs><style>.cls-1{fill:#099beb;}</style></defs><g id="Layer_1-2"><g><path class="cls-1" d="M30.257082646,29.332568184c9.3067970457-.000099124,18.613602587-.0051940974,27.9203854733,.0038431789,2.064262199,.0020023047,4.0555580746-.3210711173,5.9653636562-1.1262496673,.4700021245-.1981573631,.5487341636-.3774216926,.3044785044-.879779269-2.2170310135-4.5598283994-1.7076543738-8.9886431981,.8120144196-13.2505586776,1.2297116465-2.0799952616,1.2955586134-2.0542598403,3.2125288615-.558691159,2.6280393304,2.0503203695,4.6520717852,4.5127331731,5.2790565676,7.9017882386,.068089819,.3680558911,.201902002,.4957700788,.61679,.4346530554,1.937529726-.2854232965,3.8730827969-.2349040442,5.8166897459,.0322577802,1.8021713343,.2477193607,3.3402185112,1.0232966537,4.7952914868,2.0598815869,.4145085256,.2952960464,.2536631778,.5256262262,.1233342122,.8418770852-2.1715962665,5.2696978118-6.1779758435,7.7585540653-11.8008967583,7.707389091-.9418053273-.0085699774-1.358432102,.2740070443-1.7488469585,1.1441457967-6.1855539651,13.7860519895-16.8204111569,22.0171329728-31.5529988399,25.0012240355-6.0963637784,1.2348187634-12.2468533557,1.5500783825-18.4351174339,.5972418968C10.8867850775,57.5973902921,3.1463016589,50.3798323366,.759605041,39.7729870822c-.6969886011-3.0975228988-.9570872353-6.2189375125-.5999608214-9.3914491298,.0898701929-.7983531549,.2978069397-1.0738583876,1.1567789518-1.0707770474,9.6467887915,.0346424203,19.293747496,.0219035709,28.9406594744,.021807279Z"/><path class="cls-1" d="M42.287891571,8.1154394887c-1.267248269-.0001812553-2.5348420278-.0171711081-3.8015692301,.0085076709-.4802167301,.0097368085-.6413452662-.1450042446-.636834075-.6331162868,.0211371822-2.2872182221,.0220858634-4.5748697577-.0008580609-6.8620554104-.004859513-.4841258415,.1326454468-.6331488561,.6235666984-.6286783639,2.5033797965,.022801351,5.0071702162,.0217308119,7.5105896591,.0010153129,.5020590514-.0041532954,.7070704621,.1170626064,.7009082825,.6621185518-.0254812923,2.2562136524-.0220660402,4.5129951437-.0009968232,6.769306504,.0048198666,.5167418841-.150559945,.7082012972-.6860748741,.6937037049-1.2354320522-.0334501003-2.4723933217-.0106204281-3.7087315768-.0108016834Z"/><path class="cls-1" d="M52.6800223209,27.2612165347c-1.2052951426,.000172759-2.4114228591-.0264009681-3.6155172829,.011611668-.5841950151,.0184455595-.8143762108-.1272044072-.8035187675-.7630961658,.0369221037-2.162894075,.0348944747-4.3271362363,.0005946956-6.4901152748-.0093452172-.58938278,.1889602921-.721891737,.7416364383-.7159329689,2.4721101333,.0266841796,4.9449282377,.0308757085,7.4168797855-.0022628592,.5986546149-.0080233794,.7185792387,.2061750782,.7120489142,.7497172586-.0259853676,2.1632084397-.0288059241,4.3271758859,.0017670956,6.4902682089,.0082011361,.5802690367-.1884958631,.745335978-.7455840846,.7301360213-1.2352734667-.0337078227-2.4721101333-.0105014793-3.7083067942-.0103258882Z"/><path class="cls-1" d="M42.202784961,27.2723580718c-1.204210531,.0000764671-2.4091715113-.0248971155-3.612291767,.0113227924-.5463553811,.0164460869-.7557278931-.1112850935-.7459862121-.7090254424,.0357100573-2.1918779313,.0286728255-4.3848547228,.0034803854-6.5770243618-.0059441245-.5173196354,.1347523685-.6888749502,.6702672976-.6832560358,2.5007772951,.0262452019,5.0021577815,.0275111569,7.5028982621-.0005862476,.5567483954-.0062561402,.6638219296,.2122641237,.6598176456,.7024662661-.017920162,2.1923055805-.0191491996,4.3849566789,.0013593043,6.5772197777,.0047972115,.5120858885-.1471333654,.7041173886-.6819459872,.6897359129-1.2650478951-.034013691-2.5316363351-.0109262964-3.7975989288-.0108526614Z"/><path class="cls-1" d="M21.3878768124,17.7080820079c-1.2372161391,.0000084963-2.4747522811-.016126058-3.7114898318,.0082216274-.4715596607,.0092836702-.6496710052-.1309796153-.6449091922-.626670395,.0216809039-2.2579001764,.0201361112-4.5162081772,.0013692159-6.7741564995-.0040198593-.4837590827,.156882126-.6376986475,.6401870257-.6339262714,2.5052148573,.0195444198,5.0107412219,.0193914856,7.5159589112,.0000651386,.4800383214-.0037044053,.6470033705,.1428348452,.6428178459,.6306013694-.0193672547,2.257939826-.0203499185,4.516253491,.0011072666,6.7741564995,.0046726086,.4915530609-.1646259129,.6395310253-.64076473,.630168056-1.2676588922-.0249226045-2.5361277031-.0084680213-3.8042765112-.008459525Z"/><path class="cls-1" d="M31.864341068,9.6904263151c1.2340982348,.0001161167,2.4688194841,.0230024312,3.7020030204-.0105609537,.5325499465-.0144919281,.6907304914,.1706801915,.6856812422,.6893790666-.0216157706,2.2213432469-.0233205648,4.4431821138,.0013253217,6.6644630542,.0058506724,.5272207065-.1670046954,.6880564692-.6858313321,.6837289988-2.4988714372-.0208613529-4.9980968599-.0198559523-7.4969909521-.0003823354-.4869990923,.003795033-.6314761505-.1587853121-.6271008897-.637438093,.0205962924-2.2522217875,.0264469647-4.5049590198-.0026194927-6.7569967199-.0074138723-.5744830275,.2447597345-.6493896147,.7213941314-.640241886,1.2336423015,.0236623137,2.468040716,.0079327517,3.7021389508,.0080488684Z"/><path class="cls-1" d="M42.231885401,17.7082207815c-1.235437716,.000297372-2.4714701275-.0220281839-3.7060327913,.0108101797-.5256882916,.0139849797-.683832022-.1567037082-.6778312598-.6807524468,.0254558053-2.223676909,.0247591619-4.4479683867,.0002888522-6.6716679526-.0056949187-.5173394602,.1372472583-.6928229174,.6729887381-.6873739297,2.5015050893,.0254408814,5.0034746076,.0205894699,7.5051156273,.0034750041,.4770365244-.0032625955,.6558133616,.154367214,.6525453675,.6362825904-.0152978374,2.2547508654-.0174444055,4.5097509569,.0011554087,6.7644480122,.0040382666,.4900662009-.1752369822,.6413435784-.64940764,.6325102144-1.2658861328-.0235830146-2.5324972279-.0080290436-3.7988223026-.0077316716Z"/><path class="cls-1" d="M11.0255332343,27.2609219949c-1.2361952449-.0000481459-2.4729681942-.0220536729-3.7083167058,.0103003992-.526849364,.0137980602-.6957146072-.1591251658-.6901088928-.6855500482,.023363751-2.1941747758,.0223478126-4.3888706607,.0003893841-6.5830737576-.0049940274-.4990298422,.1031096046-.7054994603,.6578070079-.6992858019,2.5029819168,.0280435943,5.0065486177,.0232941389,7.5096721287,.0025630633,.4769317447-.0039507992,.6425997908,.1233980458,.6373537257,.6197430438-.0235187967,2.2250844697-.0251896082,4.4507353622,.0008368217,6.6757660217,.0063462521,.5426698892-.1899457877,.6815964169-.6992799492,.6692880488-1.2354745304-.0298533153-2.4721568594-.0097028231-3.7083535203-.009750969Z"/><path class="cls-1" d="M21.4046274062,27.2610664327c-1.2051592122,.0000311533-2.4109272794-.0223878624-3.6152001119,.0102579175-.5366505146,.0145485704-.7704126276-.1048986761-.761540335-.7064312259,.0323585226-2.193707477,.0271053777-4.3883382232,.002465155-6.5822496124-.0058478405-.5207238366,.1498335668-.6834089699,.676166112-.6781469018,2.471875087,.0247073639,4.9444015072,.0306916211,7.4160528754-.0034523472,.5923734961-.0081819778,.7197459749,.1889671526,.712663433,.7382670211-.0278770661,2.1629223961-.0267273212,4.3265981347-.0008269101,6.4895686767,.0065897941,.5502004807-.1364260119,.7641440481-.7220171459,.7446562706-1.2346929305-.0410911443-2.471702342-.0125009519-3.7077630725-.0124697986Z"/><path class="cls-1" d="M31.8456506336,19.3154540597c1.2364203797,.0000311533,2.4733589942,.0207848858,3.7090091014-.0100256841,.5050693441-.0125944116,.7058669114,.1131146393,.6990788854,.6604206993-.0272144053,2.1944834763-.028052643,4.3897287912,.0006456696,6.5841782821,.0076290955,.5830813261-.2030036049,.7273803743-.7534368989,.7217954452-2.4416787078-.0247923273-4.88393512-.0268909239-7.3255401988,.0013282615-.5659378589,.0065421837-.7426502527-.1577374299-.7349730152-.7285585338,.029516727-2.194426834,.0298027473-4.3897316234-.0002492058-6.5841414647-.0075809535-.553582025,.1951762775-.6675264738,.696453729-.6550793321,1.2356586029,.0306802926,2.4725915536,.0100540052,3.7090119333,.0100823264Z"/></g></g></svg>