<?xml version="1.0" encoding="UTF-8"?><svg id="Layer_2" xmlns="http://www.w3.org/2000/svg" viewBox="0 0 92.2716627635 92.2716627635"><defs><style>.cls-1{fill:#dc2c00;}.cls-2{fill:#fec300;}.cls-3{fill:#fe9000;}.cls-4{fill:#1e1e1e;}</style></defs><g id="Layer_1-2"><circle class="cls-4" cx="46.1358313817" cy="46.1358313817" r="46.1358313817"/><g><path class="cls-1" d="M35.1776380902,40.3983174624c.70746754-9.1842733736,4.5747706447-16.7717129732,11.5136110848-22.8131345656,.4164111333-.3625600756,.680852412-.5698034223,1.1560513042,.003081559,5.3906289248,6.4988088342,10.9678876092,12.8469240877,16.0329491996,19.6089657511,3.6182388797,4.8304660497,5.7845120914,10.218294314,5.2678003359,16.3593573001-.7447960828,8.8518244857-5.2682148816,15.2245468707-13.123142974,19.2821520842-.1201988147,.0620975439-.2724018512,.062246521-.4096682887,.0913164883-.1728914567-.0309613288-.3631420137,.0040871545-.5205203939-.0639111782-3.4685749355-1.4989428612-6.7287435088-3.3247738779-9.4134060905-6.0448043443-.0735753805-.0745403708-.1148485846-.1755857118-.1572423574-.2731786703-.0269130827-.1074448793-.0267187644-.2146500997-.0027075015-.3224512286,1.091958656-2.0348135091,1.9632624206-4.1562928299,2.2306767691-6.4647708042,.6262165871-5.405828585-.6966958296-10.195040931-4.5085923136-14.2214289637-1.9890160708-2.1009334348-4.3175644835-3.6100844664-7.0461300433-4.5303063301-.3327765428-.1122315784-.6782744561-.2061778365-.9395613013-.4662789079-.027178651-.0478086963-.0536448016-.0962068237-.0801174295-.1446081898Z"/><path class="cls-2" d="M45.6056058632,66.3188213489c-.0006153412,.072739691-.0012242052,.1454858593-.0018395464,.2182255503,.0098389826,.7899219533-.5962138437,1.2502547315-1.0250483928,1.7661948336-1.8660968001,2.2451303182-3.9708747514,4.1981553965-6.8187323073,5.1550742077-12.8050471778-4.8416781962-18.5118708182-20.2259803419-12.0088409537-32.3388942316,.2426938238-.452054833,.5416687007-.6606227804,1.0315515781-.7763326504,2.8066912269-.6629319256,5.6007031856-.5747504337,8.3949029853,.0552964151,.0000388637-.0000680113,.0578550311,.0324284295,.0578550311,.0324284295,.5586715508,1.0351609391,.1964622649,2.1545133746,.2195408,3.2180738841,.1601959953,7.3824341481,2.7892835471,13.8114763561,7.36410601,19.5054590492,.8784222911,1.0933235442,1.8834105594,2.0865150419,2.7865047956,3.1644745125Z"/><path class="cls-3" d="M37.7599856168,73.4583159405c1.0930986567-.6819265065,2.2248148341-1.3098390964,3.2707718745-2.0576976879,1.8383740579-1.3144444322,3.2935524549-3.0118830931,4.5730476892-4.8635972624,2.9408259014,2.7514128175,6.3908369633,4.7055325537,10.0112392532,6.3930933848-3.7703965753,1.8810885682-7.7808474843,2.3750836949-11.9213750543,1.9861239047-2.0407630305-.1917011482-4.0297272831-.6710511778-5.9336837626-1.4579223391Z"/><path class="cls-3" d="M45.6056058632,66.3188213489c-1.3660575536-.5849035473-2.0771977092-1.8862120852-2.9478926097-2.9316103423-3.2833636994-3.9421803432-5.5540311719-8.4331534789-6.7249543022-13.4587471502-.7300538021-3.133448411-.8799509283-6.3014757036-.6974018527-9.4977535895,6.6820423473,1.9974040625,11.0037458103,6.3440702012,12.5540753949,13.1453414228,1.0187071393,4.4690281603,.4286143217,8.8184665687-2.1838266302,12.7427696592Z"/></g></g></svg>