<?xml version="1.0" encoding="UTF-8"?><svg id="Layer_2" xmlns="http://www.w3.org/2000/svg" viewBox="0 0 92.2716627635 92.2716627635"><defs><style>.cls-1{fill:#004481;}.cls-2{fill:#ef5133;}.cls-3{fill:#1e1e1e;}</style></defs><g id="Layer_1-2"><circle class="cls-3" cx="46.1358313817" cy="46.1358313817" r="46.1358313817"/><path d="M43.9542288102,16.8010662942c-.0401326896,.0892641441-.0802672163,.0265585298-.1203999058,0h.1203999058Z"/><path d="M46.1147328132,46.1057293683c.0140663702,.0189570663,.0281322883,.0379178072,.0421976681,.0568785481-.014066442,.0011060432-.0281323528,.002215761-.0421981992,.0033254788,.0000000718-.0200667841,.0000000718-.0401372428,.0000005311-.0602040269Z"/><path class="cls-1" d="M46.1619782561,46.1705872282c-.0174304554-.0231681146-.0348606524-.0463325546-.0522937488-.0695116929,.017429422,.02316444,.0348617146,.0463399037,.0522937488,.0695116929Z"/><path class="cls-2" d="M48.8485340839,37.6569365916c.8585114656,.9071967662,1.7053705457,1.82582494,2.5784434707,2.7187413095,1.1309121233,1.156609003,2.2620269807,2.3146167179,3.4354939634,3.4271211781,.4855096271,.4602889955,.6004888412,.86391727,.4495420179,1.5480936227-.6143391222,2.7845710056,1.0189192151,5.43363455,3.6700798787,6.1106723157,2.7634882441,.7057274726,5.3854745009-.7221413883,6.2666921892-3.4126925308,.8421704511-2.5713480206-.5100340209-5.3918923478-3.0501736129-6.3924805236-.8757503027-.3449693938-1.7999057927-.4923207858-2.6839424508-.2605600347-.7498395355,.1965834706-1.1597164599-.0640700263-1.6374288679-.5519304039-1.9928250171-2.0351579592-4.00698217-4.0497687124-6.0386420361-6.0460608525-.4378928504-.4302650335-.6147349364-.8072791089-.4949126292-1.463186335,.6449616299-3.5305565634-2.2271824542-6.4983024207-5.8022701297-5.9990767037-.6977336459,.0974312375-1.1549892148-.0354125478-1.6469605901-.5410871643-2.08417766-2.1422109805-4.1963969901-4.2578980014-6.3358760158-6.3447051679-.5283444527-.5153350745-.6563115232-.8057716263-.0421300832-1.3887113751,1.8355966537-1.7422237076,3.5881881619-3.5718242028,5.3884511528-5.3518211872,1.8583833264-1.8374630121,4.4518065968-1.8604833436,6.2968995746-.0155683235,9.7731720604,9.7722199352,19.5379258273,19.5529042524,29.2939813346,29.3422596163,1.8570446375,1.8633838981,1.8777299549,4.4459054992,.0212323777,6.3100918841-9.7029262931,9.7430818508-19.4195097869,19.4725504325-29.1461463193,29.1919025246-1.9018971505,1.900469099-4.4593721197,1.8784764501-6.37038587-.0319254367-9.749381371-9.7462821293-19.490968741-19.5003989787-29.224857041-29.2622055203-1.8842486215-1.8896532535-1.8645381576-4.4961527719,.0228667205-6.3911913883,6.4763285321-6.5025195047,12.9660049346-12.9917174071,19.4337096233-19.5028128846,.4683930741-.4715367013,.7346586108-.5481435688,1.2409211332-.0265569937,2.130635956,2.1951356261,4.2981936587,4.3549223556,6.4824704913,6.4967224242,.4114054753,.4034058987,.4818539767,.7687355737,.3564419999,1.3013176676-.5709089662,2.4245090598,.2736685505,4.4729725071,2.4146439471,5.7614229926,.4693520387,.2824608326,.5917390936,.5777920702,.5904132767,1.0831202316-.0148736056,5.6661526682-.0215155619,11.3324181358,.007700679,16.9984612276,.0032501821,.6303485066-.2563878793,.9017469466-.7463898373,1.2017190714-2.0868260757,1.2775073379-2.9440406865,3.7020776317-2.1977087732,6.0557938244,.6613122985,2.0856050478,2.9012026429,3.6254868784,5.1123723188,3.5146470219,2.3838766293-.1194899545,4.3325860559-1.7766831009,4.847472824-4.1223099694,.4475565106-2.0389254572-.3716888937-4.1050001046-2.167922946-5.3275838314-.4191093723-.2852598677-.6256343094-.5609930253-.6239030243-1.0923037095,.0188349661-5.7710173824,.0117778876-11.5421185585,.0117778876-17.3131971748,.0960155279-.0747053929,.1920278378-.1494140086,.2880433657-.2241194015Z"/></g></svg>