<?xml version="1.0" encoding="UTF-8"?><svg id="Layer_2" xmlns="http://www.w3.org/2000/svg" viewBox="0 0 92.2575926643 90.0539600367"><defs><style>.cls-1{fill:#fefefe;}</style></defs><g id="Layer_1-2"><path class="cls-1" d="M54.732321095,66.5448874999c3.3130531597-.4079639046,6.4892952023-1.0243580374,9.4965655615-2.3099813952,6.0236934943-2.5751593653,9.4754626927-7.2333206154,10.7300794436-13.5639706084,.8261181081-4.1684670777,1.0918231913-8.3643685321-.1504373122-12.5252337267-.6978819978-2.3375188871-1.8666285497-4.4184298245-3.4469125067-6.2632298261-.3166917652-.3697081585-.4250491904-.6536817415-.2655677916-1.1469677607,1.2131718377-3.752431543,.8447554479-7.4509538769-.4415985533-11.1126125202-.1600763293-.4556661503-.4192829416-.6015970989-.8877963764-.6178091027-2.1165164921-.0732318553-4.0554748531,.5917266811-5.9562775796,1.4020003391-1.8971187343,.8087040152-3.6782317551,1.8412597124-5.3860081593,2.9915185672-.4550988977,.3065271727-.8464830344,.3967071599-1.3801070284,.259082715-7.2169923675-1.8613414012-14.4391960967-1.8584513108-21.6547697839,.0102399141-.4972588715,.1287794506-.8726542528,.0499908308-1.3028289978-.2287296047-2.9934496677-1.939522787-6.0850113721-3.6680832943-9.6577716866-4.3159447546-2.1965718182-.398316903-2.4501551939-.2486050631-3.061286038,1.8720453338-.9485793888,3.2915981745-1.0609211318,6.5851354879,.0229706072,9.8660841517,.1290627203,.3906749196,.0607744317,.6032698569-.1898743352,.8924393012-3.7930819306,4.3760551983-4.7716452411,9.5480739537-4.2551340777,15.1445894204,.2391706139,2.5914572984,.6953935869,5.1337114517,1.6586746219,7.561318668,2.3576721143,5.9416707459,6.9308422712,9.269342061,12.9087518645,10.9257906588,2.003582679,.5551837934,4.0518423451,.8891969005,6.2412206536,1.1720133016-1.6514239073,1.6358370114-2.4461079508,3.5674542983-2.8112179003,5.6947269836-.068634378,.3998922744-.2723522867,.5653692855-.6248085235,.7062074881-4.8308064961,1.9303856329-9.6985644645,1.1406433607-12.7683597238-3.8604046339-1.3337768211-2.1728725263-3.0376518546-3.9660633611-5.5974344214-4.7079200716-.9212898156-.2669939437-1.8601243584-.2495674718-2.7856244508-.0906955633-.9668391767,.1659582155-1.1834510584,.7661518017-.5690824198,1.5175867703,.2730473256,.3339558208,.5963634123,.6658722518,.9666046368,.8747206695,2.7402610055,1.5456627529,4.3175874717,4.0878481627,5.4228309206,6.8440893088,1.6694234131,4.1631738298,4.869145186,5.7933223183,9.0161249157,6.1152022013,1.9341645946,.1501243008,3.8712065931,.0452332092,5.7816140138-.3311487954,.621994045-.1225352513,.9160727333-.0950034879,.8955933973,.7214628118-.0611519837,2.4381707976-.0864079246,4.883078456,.0287511572,7.3180412246,.0931866992,1.9702568507-1.3071136409,3.208097762-3.4917782698,2.4871619836-5.2348700876-1.7275350837-9.9792457772-4.3823165835-14.2277297912-7.8907775196C8.0667274823,74.5870668033,2.5155002778,65.1878224816,.6334078273,53.7661507372-3.2990594387,29.9015483963,11.4694835659,7.6697526251,34.0969588838,1.6086314916c25.004479811-6.6978389895,50.2192904112,8.1262525782,56.715953598,33.1986291513,5.9628504168,23.0123264173-7.0488387135,47.2519015214-29.5190979445,55.0053181128-1.7672923292,.6098234019-3.7426444152,.1355621405-3.6620370623-2.6415140083,.118854515-4.0948198972,.0949314471-8.1948184698,.0734853492-12.2923079055-.0122246763-2.3363846197-.424053826-4.6036247568-1.6947680215-6.6254850457-.3598871468-.5726159939-.8101922781-1.0882493724-1.2781737078-1.7083842962Z"/></g></svg>