<?xml version="1.0" encoding="UTF-8"?><svg id="Layer_2" xmlns="http://www.w3.org/2000/svg" viewBox="0 0 77.3148304605 78.9017836494"><defs><style>.cls-1{fill:#e94335;}.cls-2{fill:#4284f3;}.cls-3{fill:#f9bb05;}.cls-4{fill:#34a753;}</style></defs><g id="Layer_1-2"><path class="cls-1" d="M4.253030464,21.8250540408c.9793260134-2.127423909,2.2281248284-4.0950229916,3.6393756004-5.9536440726C13.7346968537,8.1770906051,21.3123027484,3.0302611278,30.7736482158,1.0158699194c12.8520291621-2.7362939485,24.4318940395,.0173264113,34.4466477795,8.7202899129,.0281934842,.0244957692,.056113378,.0493104425,.0837596815,.0744140959q.5417909429,.4918117086,.0078725619,1.0253571082c-3.4465816202,3.4463429455-6.8980947063,6.8877903281-10.3316329073,10.3470775319-.3330278368,.3355247514-.5074553557,.3683539212-.8816585382,.0357976285-4.5922856118-4.0811262957-10.0111936458-5.9412384459-16.0888456517-5.4076750919-10.0743895936,.8844468013-16.744238142,6.4051695558-20.4832929615,15.6663144414-.0627564933,.155443956-.1220554888,.3122798045-.1829703771,.4684795548-2.2823350436-1.7702649759-4.5626215796-3.5431906209-6.8476044647-5.3100425532-2.0783101802-1.6070407853-4.16172624-3.2074794859-6.2428928743-4.8108285072Z"/><path class="cls-4" d="M17.3338033764,46.983268284c.9041100451,2.5303545604,2.1031658622,4.905583214,3.7654682566,7.0266153611,4.0084472541,5.1146338409,9.1913152254,8.2816578172,15.6698694107,9.0412480988,5.6355026634,.6607351347,10.9669780657-.3930129898,15.8041133489-3.5041902717,.0624709334-.0401836289,.130598347-.0715644781,.1959556585-.1069807897,2.430080665,1.8863734341,4.8580307452,3.7755990508,7.2912611189,5.6579917407,1.8280690692,1.4142311843,3.6629163389,2.8196937877,5.4947472752,4.2290687377-2.4518003178,2.3408417269-5.2400551914,4.1945210765-8.2782485167,5.676855817-4.7635668418,2.3241526964-9.8176284829,3.4953396137-15.0941190673,3.8154406913-5.534075886,.3357436239-10.9265516736-.340606698-16.1272850939-2.2696397564-9.7214136014-3.6058223638-16.94431219-10.0648944104-21.7500598219-19.2413168168-.0337550627-.0644511208-.0448696701-.1407555572-.0665534142-.2115266224,.1522461824-.1063720504,.3093716774-.206437836,.4560229374-.3200258402,4.2135878531-3.2636801382,8.4261215285-6.52872139,12.6388279078-9.7935403494Z"/><path class="cls-2" d="M65.5552184452,69.327021161c-1.8318309363-1.40937495-3.666678206-2.8148375534-5.4947472752-4.2290687377-2.4332303737-1.8823926899-4.8611804539-3.7716183066-7.2912611189-5.6579917407,2.1387274761-1.4858161817,3.9763995661-3.2668708894,5.3770247734-5.4772030295,1.1488878991-1.8130682353,1.9421288803-3.7688687204,2.4221636446-5.8621143157,.1136425859-.4955787101-.0326461669-.5541784106-.4675385257-.5535046936-6.6479886805,.0103314675-13.2960252393-.0008515509-19.9439557819,.0211759174-.5830996638,.0019288142-.7272167933-.1458101447-.7240602448-.7264105738,.0253823434-4.6684074668,.0193291573-9.3370338061,.0054410278-14.0055404495-.001244836-.4181764912,.0781989579-.5622732744,.5383471246-.5617295129,12.0261522736,.0142780128,24.0523284864,.0162512855,36.0784636607-.0048630741,.5390755588-.0009473077,.590031759,.232346872,.6517332196,.6389573178,1.4327994308,9.4419729254,.4235657189,18.5270502487-3.994097441,27.1002873167-1.7411630988,3.3790293823-4.0214222758,6.3682331061-6.7752800043,8.9922001324-.1210158455,.1153116254-.2545416091,.2174977386-.3822330588,.325805443Z"/><path class="cls-3" d="M17.3338033764,46.983268284c-4.2127063793,3.2648189594-8.4252400546,6.5298602112-12.6388279078,9.7935403494-.14665126,.1135880042-.303776755,.2136537898-.4560220824,.3200258402-1.7334478514-3.3310210605-2.9138482274-6.8525877592-3.5794409349-10.5433668642-1.5294464996-8.4809344175-.3955402363-16.59890294,3.368351456-24.3499949309,.0638782137-.1315441015,.1495940661-.2524848548,.2251443275-.3783946986,2.0811888635,1.6033250821,4.1646049233,3.2037637827,6.2429151035,4.810804568,2.2849828851,1.7668519323,4.5652694211,3.5397775774,6.8476027548,5.3100425532-.844405794,2.6838389233-1.3197638735,5.4192599466-1.2228410769,8.2459986939,.072645074,2.1186690078,.4504955576,4.1790666239,1.0553610427,6.2041334255,.057982342,.1941262561,.1054229063,.3913988049,.1577573177,.5872110635Z"/></g></svg>