<?xml version="1.0" encoding="UTF-8"?><svg id="Layer_2" xmlns="http://www.w3.org/2000/svg" viewBox="0 0 93.9774520857 93.9774520857"><defs><style>.cls-1{fill:#e7ff00;}</style></defs><g id="Layer_1-2"><circle class="cls-1" cx="46.9887260428" cy="46.9887260428" r="46.9887260428"/><g><path d="M69.3006401545,34.7585037855c-1.7893198302,1.1494617975-3.6026659152,2.3143592811-5.5468998856,3.5633407726-.3632433236-.4369729198-.6944481359-.8015831746-.9878470846-1.1944282225-1.0580331896-1.4166763423-2.4745727978-1.9593779293-4.2105459308-1.8077391363-1.3844012067,.1209251423-2.4194017876,.7158614909-2.853441073,2.0854158798-.4503108955,1.4208717366-.0378426655,2.678685637,1.1533075413,3.4929128257,1.1237400016,.7681461977,2.3979463947,1.3213757008,3.623385274,1.9343185975,1.8408737588,.9207733794,3.7659603288,1.6942558242,5.5330151288,2.7374001272,4.4741039557,2.6411952153,6.1758777918,6.4198364717,5.334075637,11.4625794625-.6704691977,4.0163855223-3.8318248625,7.0462435347-8.7416662393,7.8164716574-6.1338029305,.9622278704-11.6721017323-.1729312076-15.6030651254-5.5725718675-.3311785255-.4549058645-.5918397305-.9611395915-1.0075622826-1.6445998106,1.9846948142-1.1659883913,3.8885415442-2.2844762974,5.9509247535-3.4961040591,.3589480391,.4456370924,.7131959749,.8652396079,1.0456257583,1.3014659789,2.0269326545,2.6597853333,4.7355011948,3.5025391,7.9271709481,2.8724360944,1.4688295708-.2899763988,2.7221641409-1.0144600033,3.040130855-2.6512000214,.3251693331-1.6738571654-.3822855762-2.9485367611-1.8387655469-3.723354582-1.6149691335-.8591200103-3.3083574387-1.5694297013-4.9484779076-2.3830890922-1.433173978-.7109984086-2.9155518329-1.3607850685-4.2439303329-2.2379221417-3.968853375-2.6206493496-5.6048467957-7.0544871164-4.3860847968-11.5451546004,1.0684112698-3.9366888034,4.6156695924-6.6340486765,9.2338206711-7.0214681018,5.2899293656-.4437707203,9.4786834308,1.6899421388,11.5268296384,6.0112902396Z"/><path d="M42.3306198747,28.7011920684c-.0792945265,7.4050391202,.0007412914,17.3318923028-.0632279545,24.7372258367-.0142264869,1.6470707822-.1892212134,3.3434243036-.6235601698,4.9255716223-.8844080121,3.2215738613-3.0622854802,5.3096867803-6.2822373422,6.258050923-5.9099776015,1.7406575157-11.8628659886-.3943986056-14.555607168-5.2110319263-.1612335183-.2884096977-.2798664367-.6006353554-.4923463264-1.0627806408,2.0029221719-1.2106604027,3.9425874738-2.3830838348,5.9193567783-3.5779352769,.5827681107,.8187906,1.0344248971,1.5507607225,1.5818107991,2.2023033495,1.1591300965,1.3796853723,3.1545131767,1.9017122877,4.8506300653,1.2699216611,1.6724087058-.6229477028,2.0570180467-2.0506908433,2.061563057-3.6215505537,.022593617-7.8076234762,.0649313476-18.135920162-.0082961553-25.9428417772l7.6119144166,.0230667824Z"/></g></g></svg>