<?xml version="1.0" encoding="UTF-8"?><svg id="Layer_2" xmlns="http://www.w3.org/2000/svg" viewBox="0 0 60.4978684567 54.8277009564"><defs><style>.cls-1{fill:aqua;}</style></defs><g id="Layer_1-2"><path class="cls-1" d="M57.551382527,43.1700746303c-.7099609375-.4100341797-.9699707031-.9400024414-1.0799560547-1.6900024414-1.0200195312-7.200012207-4.4700317383-13.0800170898-10.2600097656-17.3500366211-7.9899902344-5.8900146484-16.7899780273-6.9099731445-26.0900268555-3.3699951172-.2699584961,.1000366211-.5599975586,.3599853516-.8299560547,.1500244141-.3000488281-.2399902344-.0400390625-.5700073242,.0599975586-.8200073242,1.3899536133-3.5900268555,3.5399780273-6.6300048828,6.4699707031-9.1199951172,.4700317383-.4000244141,.8400268555-.4299926758,1.3900146484-.1099853516,2,1.1900024414,4.049987793,1.1799926758,6.0399780273-.0100097656,.5599975586-.3300170898,.9299926758-.2399902344,1.3900146484,.1399536133,1.6500244141,1.3700561523,3.2399902344,2.8900146484,4.1500244141,4.7900390625,1.3099975586,2.700012207,3.1999511719,4.5599975586,5.9499511719,5.6199951172,.3000488281,.1099853516,.5800170898,.5599975586,.8700561523,.3699951172,.3899536133-.2399902344,.0899658203-.6799926758-.0100097656-1.0100097656-1.5599975586-5.1799926758-4.3900146484-9.5299682617-8.5599975586-12.9799804688-.6600341797-.5400390625-.9700317383-1.1099853516-.9700317383-1.9899902344C36.0414337966,2.4300233607,33.5613922926-.0099790807,30.2614044997,.000030685,26.8614411208,.000030685,24.4114289137,2.3900453334,24.3813996169,5.8200380092c-.0100097656,.8900146484-.3499755859,1.450012207-1,1.9899902344-5.7600097656,4.8200073242-8.9799804688,11.0500488281-9.4799804688,18.4900512695-.5900268555,8.8899536133,2.549987793,16.3799438477,9.3399658203,22.25,.5800170898,.5099487305,1.1800537109,.9899902344,1.8000488281,1.5199584961-.1600341797,.1199951172-.2400512695,.2300415039-.3300170898,.25-4.1900024414,.8800048828-8.299987793,.5599975586-12.3400268555-.8699951172-.6199951172-.2199707031-.7199707031-.6499633789-.7199707031-1.2199707031,0-2.3000488281-1.1000366211-3.9900512695-3.0399780273-5.1199951172-.6300048828-.3800048828-.7400512695-.7800292969-.6200561523-1.4600219727,.6100463867-3.4799804688,1.8800048828-6.6699829102,3.9900512695-9.5100097656,.2899780273-.3900146484,.5999755859-.7700195312,.4899902344-1.3099975586-.2399902344-1.299987793-.1199951172-2.6099853516-.1500244141-3.9099731445-.0100097656-.2800292969,.1500244141-.6700439453-.1900024414-.8000488281-.3300170898-.1199951172-.5100097656,.25-.7099609375,.4600219727-4.0200195312,4.1300048828-6.5400390625,9.0300292969-7.3900146484,14.75-.1300048828,.8900146484-.4600219727,1.4600219727-1.2399902344,1.950012207-2.8300170898,1.799987793-3.6100463867,5.2799682617-1.8699951172,8.1199951172,1.6099853516,2.6500244141,5.1599731445,3.4899902344,7.9599609375,1.8300170898,.6600341797-.3900146484,1.1900024414-.4200439453,1.8699951172-.1400146484,4.0300292969,1.6699829102,8.2800292969,2.0200195312,12.5400390625,1.5399780273,12.1300048828-1.3699951172,21.5999755859-10.9199829102,23.1300048828-23.0999755859,.0599975586-.4100341797,.0299682617-.8800048828,.3699951172-1.2100219727,.1300048828,.0700073242,.2099609375,.0900268555,.25,.1400146484,3.0099487305,3.299987793,4.7099609375,7.2100219727,5.4699707031,11.5700073242,.0900268555,.5-.1699829102,.75-.5599975586,.9699707031-2.0700073242,1.1900024414-3.2799682617,2.9000244141-3.1900024414,5.3699951172,.0200195312,.5700073242-.200012207,.8900146484-.75,1.0800170898-2.9899902344,1.0100097656-6.049987793,1.5399780273-9.2299804688,1.2600097656-.6300048828-.0599975586-1.3200073242-.2800292969-1.8699951172,.0399780273-1.450012207,.8300170898-2.8300170898,1.7600097656-4.2300415039,2.6500244141,.2200317383,.4199829102,.5700073242,.4899902344,.8900146484,.5700073242,5.4299926758,1.2899780273,10.799987793,1.1499633789,16.0700073242-.8200073242,.7200317383-.2700195312,1.2700195312-.2700195312,1.9700317383,.1400146484,2.8699951172,1.6799926758,6.4599609375,.7699584961,8.0299682617-1.950012207,1.6900024414-2.9400024414,.8200073242-6.4600219727-2.0900268555-8.1699829102ZM30.2814240309,3.4800721889c1.1799926758,.0399780273,2.299987793,1.1699829102,2.3200073242,2.3299560547,.0199584961,1.2200317383-1.1199951172,2.3000488281-2.4100341797,2.2900390625-1.25-.0100097656-2.3399658203-1.0300292969-2.3599853516-2.2200317383-.0200195312-1.2899780273,1.1599731445-2.4400024414,2.450012207-2.3999633789ZM5.8414215895,50.6200258022c-1.25,.0200195312-2.3800048828-1.0599975586-2.4000244141-2.299987793-.0299682617-1.2399902344,1.1600341797-2.4599609375,2.4000244141-2.4599609375,1.2299804688-.0100097656,2.3599853516,1.0899658203,2.3800048828,2.3099975586,.0299682617,1.2899780273-1.0900268555,2.4400024414-2.3800048828,2.4499511719Zm30.8699951172-7.1599731445c-1.6400146484,1.8200073242-3.5800170898,3.25-5.6900024414,4.4799804688-.700012207,.4100341797-1.2899780273,.1600341797-1.8900146484-.1799926758-4.6799926758-2.6799926758-7.9299926758-6.5899658203-9.8900146484-11.5999755859-.9400024414-2.4299926758-1.3099975586-4.9700317383-1.5099487305-7.5400390625-.1000366211-1.3699951172,.2899780273-2.3599853516,1.6699829102-3.0699462891,3.3900146484-1.7300415039,6.9299926758-2.7100219727,11.0899658203-2.6700439453,3.6300048828-.0799560547,7.3099975586,.9899902344,10.8099975586,2.8400268555,1.0600585938,.5599975586,1.3800048828,1.3399658203,1.3500366211,2.4400024414-.1400146484,5.8200073242-2.0100097656,10.9599609375-5.9400024414,15.299987793Zm17.9299926758,7.1199951172c-1.3099975586,.0200195312-2.4299926758-1.0999755859-2.3900146484-2.4099731445,.0400390625-1.1500244141,1.1799926758-2.2800292969,2.3300170898-2.3099975586,1.2299804688-.0300292969,2.3099975586,1.0999755859,2.2899780273,2.3899536133-.0099487305,1.25-1.0299682617,2.3099975586-2.2299804688,2.3300170898Z"/><path class="cls-1" d="M32.1213898512,38.6200258022h-1.8999633789c-.9299926758,0-1.8599853516-.0199584961-2.7900390625,0-.75,.0100097656-1.0999755859-.1900024414-.6099853516-.9599609375,.1400146484-.2200317383,.2299804688-.4700317383,.3699951172-.6900024414,.700012207-1.1000366211,1.0800170898-2.0599975586,.049987793-3.3500366211-.9699707031-1.2299804688-.3599853516-3.1099853516,.9700317383-4.1599731445,1.2399902344-.9700317383,2.9000244141-.9400024414,4.1099853516,.0800170898,1.3099975586,1.0999755859,1.8500366211,2.9899902344,.8099975586,4.1799926758-1.0999755859,1.2600097656-.4899902344,2.1199951172,.0700073242,3.1599731445,.9299926758,1.7399902344,.9199829102,1.7399902344-1.0800170898,1.7399902344Z"/></g></svg>