<?xml version="1.0" encoding="UTF-8"?><svg id="Layer_2" xmlns="http://www.w3.org/2000/svg" viewBox="0 0 93.9774520857 93.9774520857"><defs><style>.cls-1{fill:#fff;}.cls-2{fill:#004481;}.cls-3{fill:#1e1e1e;}</style></defs><g id="Layer_1-2"><circle class="cls-3" cx="46.9887260428" cy="46.9887260428" r="46.9887260428"/><path d="M44.8071234714,17.6539609554c-.0401326896,.0892641441-.0802672163,.0265585298-.1203999058,0h.1203999058Z"/><path d="M16.3927461595,62.806981117c.0140663702,.0189570663,.0281322883,.0379178072,.0421976681,.0568785481-.014066442,.0011060432-.0281323528,.002215761-.0421981992,.0033254788,.0000000718-.0200667841,.0000000718-.0401372428,.0000005311-.0602040269Z"/><path class="cls-2" d="M16.7501586069,63.6546768917c-.0174304554-.0231681146-.0348606525-.0463325546-.0522937488-.0695116929,.017429422,.02316444,.0348617146,.0463399037,.0522937488,.0695116929Z"/><g><path class="cls-1" d="M83.7759600854,37.428621122v3.9219570994h-8.0890506823v15.442706079h-4.1670867151v-15.3052492953c-6.8490406191,0-13.5354278425-.0150419624-20.221411116,.0301386262-.5046829624,.0034106585-1.1945283034,.3080682535-1.461008029,.7012762675-.3181217206,.4694066596-.5722510539,1.4319038343-.3186154371,1.7400557763,.4483244791,.5446828611,1.2945881751,1.0423734406,1.9866814221,1.0595094865,3.955383336,.0979361584,7.9144583247,.0379945952,11.872201775,.052813544,2.2793121341,.0085343287,4.1782410071,1.3917982857,4.9260327694,3.5376811369,.542081223,1.5555704936,.6104181305,3.2698158221-.0930091427,4.7867492174-.3420175399,.7375571687-.8431334779,1.3915250351-1.4352768936,1.945853084-.7481278057,.7003509894-1.6441237965,1.292329757-2.6720695178,1.4612754042-.4974301627,.0817539867-.9704240093,.0111970254-1.4662567829-.0100242308-.693345111-.0296746302-1.3946380224-.0000790168-2.0887061509-.0000790168h-12.5755088823c-.8020293893,0-1.6079836303-.0169807057-2.4076164902-.0095848312-2.0486239974,.0189479062-4.5094955855-.2961074852-5.9610961328-1.9448396819-.9919346832-1.1266424194-1.1927326214-2.6995077144-1.1948213316-4.1451525442-.0053672958-3.7147965458-.0012211998-7.4296057149-.0012361609-11.1444092737-.0000018701-.6789648571,0-1.357929831,0-2.029602214h4.0832671231c0,.5745375774-.0000112208,1.0587966144,.0000037403,1.5430555345,.0001309097,3.9189122861-.0095264838,7.8378617411,.005400959,11.7567181569,.0056627783,1.4869853844,.3957623761,1.9112067801,1.8865766671,1.9168452367,6.0415822897,.0228567885,12.0833104502,.0168256035,18.1249488441,.0047594933,1.1580082455-.0023133568,1.916465215-.733188249,1.9245180299-1.7602990513,.0079032038-1.0079839978-.7590890762-1.80243132-1.851231056-1.8965626889-.324367982-.0279585164-.6527567611-.0114639268-.9793053242-.0115602387-3.5106981458-.0010351197-7.0219760343,.0384668043-10.5319336054-.0127748914-3.6489050955-.0532698569-6.2177193815-2.7324194726-6.0756375055-6.2335980946,.1285158939-3.1669261426,2.6585996187-5.4159346551,6.2076617785-5.4310692184,6.1232063395-.0261116413,12.2466034332-.0127280503,18.3699107602-.0059606751,4.7345651765,.0052325205,9.4691191321,.0256854259,14.2036730878,.0393718035Z"/><path class="cls-1" d="M15.5930095887,37.2976263129c.0392557705,.0133439633,.0782906887,.0275572117,.1170911459,.0426594798,1.3771663243,.5360374896,2.625076194,1.9478200896,3.6653313037,2.9677900733,1.3478193084,1.3215366359,2.6054389594,2.730472038,3.8914429375,4.1111413212,2.3392482969,2.5114449476,4.6668722682,5.0337269986,7.0156459102,7.5362909388,.2972416282,.3167036007,.7877321117,.4520349761,1.1884017301,.6716673562,.1017448662-.4150006957,.2896806596-.8295404031,.291906124-1.2450731522,.022280826-4.1631801869,.0140260361-8.3265240107,.0143664013-12.4898213148,.0000355326-.441174519,.0000056104-.8823491549,.0000056104-1.3918730128h4.0594845763c0,.5077744636-.0000504937,.9478592784,.0000056104,1.3879440932,.000527379,4.2449298604-.0481803692,8.4906779048,.0223126183,12.7344450088,.0354652999,2.1349889897-.6304254414,3.7658606814-2.6558953989,4.6392061889-2.0085975711,.8660688126-3.9625814977,.3813392029-5.647071036-1.4127428999-2.4862280501-2.6479810127-4.9362408749-5.3299694931-7.4011025966-7.9980058323-1.3847165401-1.4988567071-2.7435143956-3.0230074402-4.1699099502-4.4810552495-.3440749225-.3517100745-.9170787419-.6039517788-1.3824920104-.7200982868-.1816616504,.431697059-.3376256854,.9653972348-.3406198271,1.4384716167-.0269052101,4.1223079216-.0131924221,8.2448669089-.019803828,12.3673389348-.0007148603,.4458326743-.0527687532,.8915830628-.0810092419,1.337372724-1.3073212445,0-2.6146426058,0-3.9219639672,0,0-2.9771225963,.0032931975-5.9542441563,.0031456364-8.9313667871-.0001018066-2.0539999999-.050081598-4.1054091708-.0392537518-6.1574450629,.0083417917-1.5808920406,.5269798448-2.7142283441,1.7921410988-3.6654568448,.990295459-.7445669561,2.3973416075-1.1494673509,3.5978409048-.7413892928Z"/></g></g></svg>