<?xml version="1.0" encoding="UTF-8"?><svg id="Layer_2" xmlns="http://www.w3.org/2000/svg" viewBox="0 0 68.8348364258 71.3429358475"><defs><style>.cls-1{fill:#004481;}.cls-2{fill:#336790;}.cls-3{fill:#fefefe;}</style></defs><g id="Layer_1-2"><g><path d="M32.1987433127,5.7352878871c-.0409686865,.0911235897-.0819392485,.0271117658-.122907935,0h.122907935Z"/><path d="M34.4042523931,35.6503912237c.0143593843,.0193519576,.028718307,.0387076664,.0430766803,.0580633751-.0143594575,.001129083-.0287183729,.0022619171-.0430772224,.0033947512,.0000000733-.0204847917,.0000000733-.0409733346,.0000005421-.0614581263Z"/><path class="cls-1" d="M34.4524819975,35.7166001262c-.0177935461-.0236507255-.0355868285-.0472976999-.0533830706-.0709596787,.0177924912,.0236469744,.0355879128,.0473052021,.0533830706,.0709596787Z"/><path class="cls-3" d="M33.2820403021,50.4123995672c-1.4388968116,1.2660262146-3.0048297026,2.0338110232-4.7807462927,2.334159187-2.162200127,.3656889574-4.2775908868,.1622423575-6.3328203222-.6120329815-.5010145637-.1887479698-.9644415818-.4527031755-1.3715935399-.7995929368-1.2404517119-1.0568450934-1.0751748602-2.5329965696,.3691341538-3.2898767297,.8326308495-.4363392348,1.748914804-.6154193452,2.6542349985-.8250951821,.4804300783-.1112692223,.9624540302-.2180825196,1.4376408741-.3491055302,1.4641932402-.4037158709,2.5270003382-1.298269832,3.2612970264-2.7468565863-.4580217835-.0628428277-.904797613-.1169619366-1.3491347289-.1866402022-.8497750067-.1332666508-1.6628020821-.3953614468-2.4221617792-.7938793191-.2950442904-.1548390418-.4479742831-.1061443859-.6638265726,.1304830041-1.7689261916,1.9391356798-3.5216767438,3.8919910101-5.2075507992,5.904400354-.3292577013,.3930307088-.6694582593,.7809714204-1.0387753166,1.1356895349-2.1972043779,2.1103421462-4.6984275126,2.1177872689-6.9315062397,.0329961427-1.4245815623-1.3299804106-2.4288177256-2.9608803469-3.3072632954-4.6744779327-2.0781751182-4.0539407189-3.4648120376-8.3650883035-4.6679697207-12.7391867172C1.7875368561,28.7763086683,.7883899835,24.5811074596,.2416752319,20.3014196119c-.4720128145-3.6949217135-.3106644692-7.3736414882,1.0045418734-10.9086733566C2.9546277058,4.800852745,6.3558803327,2.2116972352,11.1046385407,1.3217803627c3.9889264457-.7475245464,7.9117158474-.2118752748,11.8033541657,.7161471169,1.2734300886,.3036696397,2.5247393022,.6895365518,3.7573627433,1.1307942012,.2481913748,.0888484984,.4479725412,.12512431,.6907848104-.031778515,2.7279973775-1.7627982801,5.7514274977-2.3848853999,8.9569528843-2.3108842511,1.6017924336,.0369780378,3.1845385134,.2114885605,4.7438729419,.5810805895,.2919314466,.0691933484,.5528285196,.0060637511,.8328625273-.0767503918,5.2514911939-1.5530037725,10.5306408847-1.884144395,15.8276175725-.2521207878,3.8171094864,1.1760698317,6.9396663498,3.3855214719,9.3883021079,6.5349394473,1.000625125,1.2870063403,1.252202828,2.8336896409,1.3323877337,4.4013408735,.20866331,4.0793053495-.6290627092,8.015834707-1.7577342378,11.8960535741-1.8980856938,6.5253347339-4.7030314556,12.6442640159-8.3965120941,18.3505795126-.2240481094,.3461511717-.13667945,.4686943374,.1890351488,.5974562884,.9773528288,.3863799184,1.998909085,.4343185651,3.029593098,.4112794466,1.4689696351-.0328323988,2.9099358695-.2886944739,4.348101067-.5625683808,.5260514435-.1001799264,1.0537054702-.152463013,1.5873657003-.0689292242,1.1321832763,.1772162168,1.6999088526,1.2068414958,1.2329021512,2.2551823569-.3423605615,.7685477856-.9395248958,1.3302277685-1.5742036142,1.8509369312-2.3429140363,1.9222038613-5.0750816142,2.8344177788-8.0586666368,3.0937010568-1.5021082701,.1305352628-2.9998512428,.1872394353-4.4751580496-.2113794704-.345935019-.0934699094-.3233978207,.1548982683-.3466352782,.3497012794-.1688460834,1.4154129321-.3191474912,2.8331391826-.4991803026,4.2470993229-.3815088838,2.9963709715-.7232423475,5.9986680795-1.2677269825,8.9719929647-.7643555762,4.1739510796-3.2646676771,6.6707254029-7.3595431675,7.6537672774-1.6014579815,.3844637661-3.2022679619,.6559093854-4.8499709224,.3825336781-2.1185175392-.3514780751-3.6801687457-1.5131541192-4.8374568374-3.2910786798-1.1878625934-1.8249155829-1.6061194085-3.8638409908-1.7816754383-5.9894600967-.3134548367-3.7952915131-.3665142786-7.5973662053-.3386293296-11.5390169153Z"/><path class="cls-2" d="M21.3618464931,19.8112068841c.2641666913-3.1339036741,.9029964488-6.0650993379,2.1655794874-8.8451245206,.8581955366-1.8896266592,1.9856511922-3.5898285984,3.5449316207-4.9793551838,2.2564302815-2.0107832274,4.9484461807-2.9582830896,7.9219906707-3.041264678,8.0089900392-.2235052306,14.0695419148,3.2770324124,18.4743047522,9.8416526234,.996670925,1.4853890723,1.8111908416,3.06987109,2.4170753192,4.8012801824-.2409902017,.0830286213-.4581994612,.0203530214-.6720746507,.0022401562-1.4898241209-.1261646936-2.962469246-.0564707504-4.4018572842,.3867840523-2.3654477507,.7284287822-3.7674781792,2.6052407374-3.830936993,5.0860047372-.0581807406,2.2745180756,.6034492478,4.3882100044,1.4205298138,6.4651274866,.9126572388,2.3198437874,2.1068883588,4.5026060389,3.3034571601,6.6839607895,1.1032009062,2.0111551351,1.9908055878,4.1526399821,3.5737537325,5.8705854917,.2203238452,.2391114201,.1225035558,.3238088359-.1364042237,.4088476751-1.9080008068,.626675869-2.7045299842,2.0784747914-2.7751725517,3.9581888463-.1201867778,3.1981871-.6285470954,6.3511878447-1.0030917097,9.5198905866-.2630884315,2.225809484-.5424117283,4.4504344375-.9617729323,6.6534173217-.1096689541,.5761138356-.2714741227,1.1455873325-.4519354509,1.70435128-.6106120983,1.89067793-1.8496180014,3.2031307729-3.7085971794,3.9071599685-1.8062367689,.6840524368-3.6418879087,1.2139277754-5.611971398,.9220037138-1.3114043444-.1943257149-2.3408202264-.8476779079-3.1302492631-1.8976387887-1.0730200825-1.4271363003-1.5488514436-3.0604227172-1.7085175119-4.8183356799-.4566909426-5.0281926802-.5010406927-10.0652101127-.3353753888-15.1057462977,.0402561951-1.2249055861-.2023400738-2.3410956584-.9429077401-3.3225209971-.7939650442-1.0521905853-1.8524782641-1.6265554964-3.1834062535-1.5844001457-.4870320246,.0154302519-.4684176715-.1377608989-.3487674107-.5119575726,.5094194162-1.5932005107,1.1047303281-3.1518196981,1.8109713574-4.6675205579,1.5450714374-3.3159607884,1.9354224002-6.8011247931,1.5613968835-10.4068496168-.155070835-1.4949872534-.3964442631-2.9731803028-.7147974304-4.4409651612-.7474309033-3.4460675298-3.3510713027-4.7179954935-6.3493722204-4.4746772481-1.9207674729,.155875506-3.7072280159,.7747143121-5.4138572666,1.6462396064-.1328036372,.0678195979-.2704307016,.1261943068-.512925938,.2386219303Z"/><path class="cls-2" d="M25.1033245007,4.8940117151c-4.0209319498,4.3045185686-5.4182748223,9.5838221373-5.889765273,15.2323569321-.1306366659,1.5650278459-.0105979529,3.1174665712,.0601700342,4.6729920437,.1136196702,2.4973509109-.0750723167,4.9722497427-.3290643462,7.4556562907-.3608564628,3.5282600119,.6939864931,6.6115267485,3.261506059,9.1120602142,.334351129,.3256274386,.3594838154,.489322588,.0305309533,.8372261681-1.7644894747,1.8661058896-3.4535686966,3.8004964795-5.1004633978,5.7714681589-.3908700604,.46778852-.7981909866,.9209376364-1.2951137371,1.2809826543-.9703310754,.7030432481-1.8506579386,.7215393437-2.84867364,.0577807017-.9046269031-.6016439521-1.5709139636-1.4327279811-2.1708079153-2.3173736928-1.3083751137-1.9294085939-2.2717131776-4.0375071-3.1057523842-6.2024874581-2.5356420943-6.581976196-4.239969809-13.3885428616-5.3322966651-20.3461127805-.5125723246-3.2648256512-.3704022849-6.5262997779,.6277558199-9.7051215459,1.327858694-4.228816617,4.2767983049-6.6164455985,8.5838993692-7.3661436713,3.8438447561-.6690633354,7.6109397089-.111423821,11.3393061465,.8500130008,.7283793237,.1878273457,1.4615663972,.3677758215,2.1687689765,.6667029842Z"/><path class="cls-2" d="M45.0604594914,2.7127719337c.8716763974-.2456341768,1.7007380153-.3349111965,2.5255562713-.4249912583,3.9375052968-.4300211581,7.7778313374-.0955471927,11.4380723085,1.5355883432,2.5324090568,1.1285283511,4.6391092862,2.8130191479,6.3448849872,4.9903299462,.8969937293,1.1449515183,.9557527934,2.5413884458,.9982073146,3.906737544,.0742692831,2.388476879-.2844724666,4.7407280277-.806907646,7.0613992444-1.6543049069,7.3483238904-4.5831930655,14.1725644481-8.541727042,20.5664964248-.0480914337,.0776842983-.1045999135,.1501601463-.1620978143,.2320634636-.3390160399-.1974612369-.3765722305-.4067921663-.1842064957-.7462124176,1.2505026962-2.2065120884,1.5808508509-4.5988073363,1.4318872517-7.0974490371-.1378639681-2.3125101499-.6473321585-4.5965985353-.5060400558-6.9302717164,.1023493292-1.6907640182,.4460407316-3.3500578477,.6241713463-5.0317915626,.1872026296-1.7675111438-.0574979008-3.4280696338-.7843251574-5.050374756-2.551810766-5.6957244003-6.4236031808-10.1376424118-12.1121989626-12.8769576323-.0664549477-.0319997435-.1316278288-.0666603257-.2652763061-.1345665859Z"/><path class="cls-2" d="M32.3779743031,29.703823933c.0371450932,2.0962950078-.4788832371,4.431210204-1.5002652994,6.6567096198-.7845272222,1.7093994703-1.4743522246,3.4554148692-1.996564436,5.2624301056-.0934236371,.3232723132-.2435891737,.3636787395-.5207315638,.3432734594-2.3476329472-.1728543574-4.1887555153-1.2742203786-5.5910263314-3.1158517774-1.5689516701-2.060532638-2.0384092788-4.4065301624-1.6803242399-6.9474038599,.3808190762-2.7021893342,.4624358552-5.4215108119,.2129188653-8.1331049699-.1003356484-1.0903899524,.2167755168-1.7001078736,1.1938862162-2.168279624,1.8328744901-.8782004722,3.6785156462-1.6369898167,5.7588168002-1.5766292772,1.7690951596,.0513302363,2.8962233309,.9367720222,3.2886019099,2.6641415172,.4973268802,2.1893747189,.8326221398,4.4037778709,.8346880787,7.0147148065Z"/><path class="cls-2" d="M55.1047720946,38.2732542021c-.724047123-1.6614364362-1.5861707306-3.1100963527-2.3814143575-4.5945813495-1.3175080964-2.4594023855-2.5761456446-4.9467318199-3.2681689732-7.6717791091-.2762749047-1.0879128901-.4669857982-2.1852985404-.3207465906-3.3223677049,.1668393704-1.2972438195,.8465088723-2.1801406068,2.0639460949-2.6174379178,1.5055433725-.540783471,3.0639301866-.4416208473,4.621432096-.3072863771,.3381973289,.0291690639,.3168551003,.2325581793,.3099918633,.4735125895-.0390681931,1.3715992387-.3236103372,2.7132664364-.5054443129,4.0663678376-.2581761654,1.9212283655-.1444868176,3.8250267129,.0926432487,5.734622292,.2599459747,2.0932605194,.5161014916,4.1896286894,.0631278455,6.2914108607-.1362962235,.6324103903-.3322573191,1.2443423383-.6753669142,1.9475388786Z"/><path class="cls-2" d="M22.3329562149,49.8396407401c.9893443323-.4322073137,1.94949552-.5677942507,2.8839252462-.7652136806,1.8489717423-.3906372604,3.351626981-1.2631694057,4.4244554503-2.8480782028,.2857719526-.4221771273,.6390022093-.802076967,.9857524555-1.1788482526,.6322922629-.6870346666,1.2867350137-.6927761557,1.968878068-.0417128937,.8568873409,.8178312229,.934152758,1.930652351,.1969087101,2.846541797-2.0228468016,2.513016327-4.6941510539,3.2660293433-7.7841301865,2.842322778-.8983315379-.1231842057-1.7974225609-.2817858739-2.6757897435-.8550115454Z"/><path class="cls-2" d="M66.1005244518,44.8075565288c-.9562405361,.869811209-1.9339069138,1.4920590243-3.0046346055,1.9256738389-2.4604670033,.9964166176-5.0264327602,1.292887186-7.6563555253,.9369357662-1.0200442537-.1380605154-1.0610878049-.2330215397-.9523246587-1.2540171655,.1435844936-1.3478946927,.6132633284-1.854640331,1.9587330191-2.1351197374,.1627667186-.0339333153,.2885137635-.0189037135,.4260990214,.073761412,1.2006553886,.8086371757,2.5669760812,.9911036498,3.9672227649,1.0282247458,1.7346361354,.0459946231,3.436635314-.2388536105,5.2612599841-.5754588599Z"/><path class="cls-3" d="M28.2820919724,21.1821685667c.6519831339,.0196510129,1.2840350092,.1350103494,1.8465382544,.4836786485,.5847164429,.3624367244,.6391171773,.8627876398,.1731277678,1.3734770679-1.0118223047,1.1088808222-2.9542507809,.7454825377-3.4932361165-.6535263887-.1825359768-.4737965284-.0156948645-.8662593594,.4669039271-1.0539133804,.3210845266-.1248530002,.6588812097-.176885245,1.0066661672-.1497159473Z"/><path class="cls-3" d="M52.9734652441,20.6458950214c.3825017887,.0741672879,.9706393984-.0242271329,1.1612492595,.5085485634,.1970829039,.550867658-.2691608286,.9118010738-.6400264691,1.2255030773-.7273115155,.6151981167-1.6740027456,.602490543-2.3937960552,.0096208265-.6444788635-.5308334147-.5932693601-1.0155798826,.1467722407-1.3893219055,.3951726481-.1995724883,1.1412343879-.3597941761,1.7258010241-.3543505616Z"/></g></g></svg>