<?xml version="1.0" encoding="UTF-8"?><svg id="Layer_2" xmlns="http://www.w3.org/2000/svg" viewBox="0 0 92.2716627635 92.2716627635"><defs><style>.cls-1{fill:#fbdc5a;}.cls-2{fill:#3d7aab;}.cls-3{fill:#1e1e1e;}</style></defs><g id="Layer_1-2"><circle class="cls-3" cx="46.1358313817" cy="46.1358313817" r="46.1358313817"/><g><path class="cls-1" d="M77.5314011186,50.5101313542c-.3268848858,2.1282906229-.9435615659,4.2681634902-1.920134384,6.4685815058-1.3629725452,3.0710530863-3.5881369555,4.6413786687-7.0968314235,4.5821438833-7.0050250691-.1182568983-14.0135033754-.0308267441-21.0205578522-.0312737175-.6958597412-.0000432555-1.3553451434-.1876711419-1.3387818605,.9994000163,.0170246758,1.2201580015,.7457730771,.946891459,1.3975265442,.9484558658,4.290813057,.0103092245,8.5819541356,.0348278767,12.8722589395-.0118772359,.8907189245-.0096964385,1.1550898264,.2250114415,1.1057135807,1.1146686813-.0784151591,1.4128071291-.0653339505,2.8348096539-.0121584229,4.2499597885,.1143028729,3.0416537906-1.268974562,5.2430084573-3.8474037006,6.6622750726-4.2972040691,2.3653326153-8.9599250072,3.0913471365-13.8010247522,2.6754600424-2.9130146624-.2502474139-5.7543043623-.9213346751-8.3746914145-2.252789046-1.9570284732-.9944004028-3.5660621923-2.392990895-4.3001905065-4.5857881844-.2662975776-.7954179509-.3041732458-1.610888425-.3073164847-2.4255658817-.0176230446-4.5663232151-.0328183698-9.1328591029-.0073498441-13.6990922024,.027809734-4.9861285354,3.3347691936-8.2710944434,8.3106064689-8.2840026018,4.7238248532-.0122557215,9.4477290083,.0072344803,14.1715592685-.0034207881,5.8379174004-.0131676913,10.013865262-4.1882414171,10.0501639038-10.037769309,.0117222625-1.8894681832,.0217972082-3.779385142-.0089106497-5.6684207703-.0098802956-.6077738437,.174100109-.8338558585,.801118593-.8212000238,1.7313731185,.0349486316,3.4647720401-.0202093242,5.1957017889,.0246412094,3.9013925847,.1010915521,6.1480506741,2.988696421,7.0196748667,6.4437904063,1.2105755438,4.798687647,1.7947972668,9.1999162602,1.1110273412,13.6518232894Zm-22.6790139825,16.8980202164c-1.5827649653-.0130919942-2.8381032054,1.2229515851-2.8698383833,2.8257223969-.0325966849,1.6463543201,1.2404222739,2.99775668,2.8322745158,3.0066817289,1.5828875228,.0088709796,2.9114286245-1.3556918624,2.8921871002-2.970610257-.0187693175-1.5758442708-1.2885801541-2.8488424549-2.8546232327-2.8617938688Z"/><path class="cls-2" d="M52.0143417837,14.2509114782c.993342885,.133664298,1.973870795,.3366167573,2.9291308173,.6448725543,3.6692299079,1.1840350932,6.4992775714,3.9603987989,6.5395120856,7.9712638381,.0481362524,4.7975328075,.0380432835,9.5961343859,.0001117436,14.3939050986-.0346369065,4.3812690302-3.3249880254,7.6750752784-7.7049256025,7.7110530301-4.8764251361,.0400617907-9.7533711415,.0127747873-14.630072032,.0235165667-5.9624105672,.0131316451-10.1657995892,4.2032006065-10.2012736715,10.1647151533-.0107652327,1.8090490226-.0328796485,3.6187504821,.0048491309,5.4270136967,.014880821,.7131892691-.2083098666,.9749138057-.9378143395,.9438022963-1.1776503154-.0502268303-2.3621917856-.0660583387-3.5384110622-.000028837-4.4612214957,.2504492179-7.2029746979-2.217664508-8.5667613468-6.533540073-.7611657104-2.4088072991-1.5021981636-5.1808386187-1.4570837526-7.7040326795,.0233415763-1.3054601055,.0466830953-2.6109202047,.0700246143-3.9163803039,.0067062337-.3750720077,.013520555-.7514701785,.0699799335-1.122329074,.0503540616-.3307572401,.1397542302-.6541378923,.2289545579-.9765959277,.7987080081-2.8873119376,1.1672650251-5.8029307192,3.3529210785-8.0425227223,1.8341357722-1.879397173,4.3713653675-2.8036400226,6.9711116316-2.8424422057,2.5573519556-.0298949488,5.1153788784-.0024709697,7.6731030122-.0000144185,4.0923564513,.0039272378,8.1847291234,.0037578205,12.2770513307,.0179852713,.6330201959,.0022024252,1.142780009,.0254828891,1.1300917052-.8861607545-.0109941268-.7900308404-.1941851171-1.0954082743-1.050209461-1.0870716802-4.4067722582,.0429166529-8.8141338737,.0257397185-13.2212882228,.028208886-.5395881409,.0003018873-1.1298916482,.1396503415-1.1019557521-.7641343207,.0740932057-2.3971614449-.1290025611-4.8008103118,.1587479824-7.193505177,.2425409675-2.0167796659,1.2175719552-3.5454870027,3.0452214245-4.4816545944,2.2842419046-1.1700456124,5.5751168853-1.9327847167,8.1328835178-1.9791425399,1.7680910433-.0320444022,3.5364006225-.0640907027,5.3047418127-.0521729112,1.5078941525,.0101625174,3.0290870731,.0545916167,4.5213588641,.2553918282Zm-17.2496338023,7.4242287301c.0061368856,1.4385207141,1.2945440173,2.9450669904,2.495138715,2.917588942,1.8701946966-.0428031072,3.1841929115-1.2410522043,3.1948049473-2.9133760377,.0099235512-1.5637593184-1.3712794181-2.9434998802-2.9206781095-2.9175848868-1.5631503616,.0261452387-2.7761395856,1.3022542133-2.7692655528,2.9133719825Z"/></g></g></svg>