<?xml version="1.0" encoding="UTF-8"?><svg id="Layer_2" xmlns="http://www.w3.org/2000/svg" viewBox="0 0 82.2553191489 83.4408034793"><defs><style>.cls-1{fill:#fbdc5a;}.cls-2{fill:#3d7aab;}</style></defs><g id="Layer_1-2"><g><path class="cls-1" d="M81.8781061339,47.3981033631c-.4242861392,2.7624532385-1.2247127697,5.5399398601-2.4922730901,8.39601215-1.7690948224,3.9861287985-4.6572871421,6.024361239-9.2114604732,5.9474763799-9.092298758-.1534936761-18.1890797076-.0400121291-27.284012572-.0405922862-.9032037142-.0000561442-1.7591946985-.2435911469-1.7376960864,1.2971892944,.0220974853,1.5837261069,.9679896297,1.2290348645,1.8139448091,1.2310654146,5.5693382743,.0133810441,11.1391023099,.0452054714,16.7077808879-.0154162728,1.1561247092-.0125856674,1.4992696943,.2920576629,1.4351809047,1.4468043392-.1017803715,1.8337785202-.0848013806,3.6794923702-.0157812445,5.5163120368,.1483614775,3.9479694519-1.647088443,6.8052574851-4.9938070947,8.647420212-5.5776336038,3.0701261721-11.6296964267,4.0124698274-17.9132892425,3.4726616652-3.780999973-.3248131488-7.4689032359-1.1958629755-10.8700819191-2.9240482144-2.5401604392-1.2906999559-4.6286348047-3.1060257355-5.5815099041-5.9522065664-.3456457487-1.03242709-.3948071559-2.0908817144-.3988869796-3.1483070276-.022874149-5.9269416579-.0425971956-11.8541593584-.0095398629-17.7809840492,.0360961463-6.4718355527,4.3284238812-10.7356163601,10.786901707-10.7523707374,6.1313737527-.0159075349,12.2628504368,.0093901243,18.3942312076-.0044400737,7.5774302883-.0170912427,12.9976772084-5.4362035623,13.0447916858-13.0287038977,.0152151222-2.452469341,.0282920799-4.9055211785-.0115657386-7.3574290771-.0128243081-.7888710333,.2259763797-1.0823182661,1.0398263413-1.065891397,2.2472669976,.0453622074,4.4971634229-.0262310573,6.7438549408,.0319835026,5.0638829415,.1312136052,7.9799733702,3.8792324779,9.1113137274,8.3638340949,1.571288383,6.2285432675,2.3295895159,11.9411974064,1.4420779961,17.7196305101Zm-29.4366356482,21.9330904189c-2.0543783621-.0169929903-3.6837672949,1.5873520891-3.724958542,3.6676974009-.0423094557,2.1369153133,1.6100284851,3.8909924047,3.6762018421,3.9025768331,2.0545374378,.0115142481,3.7789413464-1.7596447286,3.7539664626-3.8557572148-.0243619746-2.0453955218-1.6725358752-3.6977064977-3.7052097626-3.7145170192Z"/><path class="cls-2" d="M48.757778282,.3347942966c1.2893273315,.1734919888,2.5620212348,.4369177975,3.8019182272,.8370239745,4.7625432037,1.536839726,8.4358546625,5.1404711226,8.4880777766,10.3464458129,.0624793179,6.2270443227,.0493789667,12.455475876,.0001450396,18.682828992-.0449575981,5.6867472377-4.3157282373,9.9620025243-10.0007472914,10.0087004968-6.329444045,.0519989245-12.6595641617,.0165812658-18.989366127,.0305237523-7.7390184418,.0170444558-13.1948831114,5.4556201123-13.2409273369,13.1934755483-.0139729282,2.3480878397-.0426767334,4.6970225216,.006294017,7.0440904076,.0193148303,.9256968879-.2703795523,1.2654069753-1.2172530533,1.22502523-1.5285524883-.0651928212-3.0660494754-.0857416133-4.592744521-.0000374295-5.7905229838,.325075084-9.3492310525-2.8784576862-11.1193825554-8.480326295C.9058236813,50.0959898637-.05601277,46.4979817658,.0025442943,43.2229564805c.0302966203-1.6944455129,.0605931664-3.3888910176,.0908897124-5.0833365223,.0087044771-.486831484,.0175492485-.9753842853,.0908317181-1.4567472843,.0653579634-.4293123313,.1813965263-.8490500872,.297175702-1.2675903159,1.0366974791-3.7476386573,1.5150727133-7.5320186938,4.3519844479-10.4389375681,2.3806496393-2.4393974916,5.6738925999-3.6390351846,9.0482801995-3.6893991787,3.3193611415-.0388026885,6.6395983689-.0032072398,9.9594425859-.0000187147,5.3117479399,.0050974292,10.6235169339,.0048775309,15.9352204261,.0233443075,.8216399919,.0028586776,1.4832919446,.033075976,1.4668229316-1.1502083502-.0142700254-1.0254347926-.2520460786-1.4218049463-1.3631383305-1.4109843135-5.7198496129,.0557044444-11.4404641928,.0334093324-17.1608097476,.0366142328-.7003681692,.00039184-1.4665632639,.181261682-1.4303033633-.9918219374,.096170614-3.1114389761-.1674412033-6.2312984186,.2060498098-9.336939917,.3148104276-2.6177155785,1.5803695014-4.6019288658,3.9526001267-5.8170444931C28.412463533,1.121204599,32.683914128,.131193608,36.003813507,.0710226344c2.294925691-.0415926103,4.5901350346-.0831876847,6.8853854082-.067718772,1.957198439,.0131906229,3.931658254,.0708581745,5.8685793669,.3314904343ZM26.3683046613,9.9712060148c.0079654814,1.8671539321,1.6802767792,3.8226028708,3.2386103427,3.7869372417,2.4274529711-.0555570658,4.1329806773-1.6108461146,4.1467547608-3.7814690266,.0128804525-2.0297096396-1.7798768779-3.8205688118-3.7909468826-3.7869319782-2.0289192332,.0339356847-3.6033404958,1.6902843673-3.5944182209,3.7814637631Z"/></g></g></svg>