<?xml version="1.0" encoding="UTF-8"?><svg id="Layer_2" xmlns="http://www.w3.org/2000/svg" viewBox="0 0 93.9774520857 93.9774520857"><defs><style>.cls-1{fill:#022751;}.cls-2{fill:#fec902;}.cls-3{fill:#00ffce;}</style></defs><g id="Layer_1-2"><circle class="cls-3" cx="46.9887260428" cy="46.9887260428" r="46.9887260428"/><g><path class="cls-2" d="M75.2401357468,40.0450386489c-.3559728847-1.2858469357-.8151638912-2.5143037548-1.5384615517-3.6394023052-1.5384615517-2.4339295621-3.6738784192-3.8116427285-6.6588652185-3.6853704572-1.2284568191,.045968152-2.4684056761,.011492038-3.7083545332-.011492038-.3329187352,0-.4132929279,.1148503067-.4132929279,.4247849659,.011492038,2.1928770575,.011492038,4.3741920037,0,6.5670690612,0,1.1365905884-.2066464639,2.2272830982-.5969553158,3.2949915319-.5855333512,1.5843596303-1.5154774757,2.893190642-2.9965489107,3.7656745764-1.3087609383,.7577737745-2.7438642213,1.0792004718-4.259341697,1.0792004718-4.5923305056,0-9.1846610112,0-13.7769915169-.0114219646-1.3433071257,0-2.6291540614,.2410525046-3.8690328451,.7462116631-1.5154774757,.6200094652-2.7324422567,1.6188357443-3.4902160312,3.099837106-.5855333512,1.1595746644-.8150938178,2.4109454861-.8036718532,3.7197764978,0,4.3741920037-.0114219646,8.7368919693-.0114219646,13.111083973,0,.264106654-.011492038,.5281432346,.0458980786,.7807578506,.3559028112,1.8598882489,1.4810013616,3.1916332632,3.0309549513,4.1904595423,1.9287704036,1.2284568191,4.0986633851,1.7221239396,6.3144544452,2.0551127482,1.1136065124,.1606783119,2.2387050628,.2295604666,3.3638736866,.2640365806,2.9505807587,.0918662307,5.8896694793-.034476114,8.782790048-.7118056225,1.5958516683-.3673948493,3.122821182-.9070301218,4.4430741583-1.9287704036,1.2744249711-.9874043145,2.0321286722-2.2272830982,1.9977226316-3.9150009971-.05746019-1.9976525582-.034476114-3.9953051164-.022984076-6.0044497126,0-.3329187352-.0918662307-.4362770039-.4362770039-.4362770039-1.676225861,.022984076-3.3523816485,.011492038-5.0286075095,.011492038-2.7094581807,0-5.4189163614-.011492038-8.1169525775,.011492038-.3673948493,0-.4821750825-.1148503067-.4477690419-.4592610799,.034476114-.3444107732,.034476114-.7003135845,0-1.0447243577-.0344060406-.3788868873,.0918662307-.4707531179,.4707531179-.4707531179,3.3064835699,.011492038,6.6244591778,.011492038,9.9309427478,.011492038h9.2649651305c.9414361625,0,1.8598882489-.1033582687,2.7669183707-.4132929279,1.4810013616-.5166511966,2.6979661427-1.3892052044,3.6853003838-2.6061699854,.9644202385-1.193980705,1.5843596303-2.5602018334,2.0206366342-4.0067971544,.3329888086-1.1021845478,.6200094652-2.2157910602,.6429234678-3.3753657246,.034476114-1.7795140562-.0229140026-3.5590281125,.011492038-5.3271202041,.045968152-1.7336159776-.1377643093-3.4212638032-.5969553158-5.0859976262Zm-20.1833121928,26.302612212c1.205472743-.1033582687,2.5372177574,.9988262791,2.5143037548,2.61759195-.022984076,1.2628628597-1.2284568191,2.4224375241-2.5602719068,2.4224375241-1.3317450143-.011492038-2.4683356027-1.1480826264-2.5028117168-2.4683356027-.0229140026-1.492563473,1.2514408951-2.6750521401,2.5487798688-2.5716938714Z"/><path class="cls-1" d="M60.980899074,25.0395903129c-.2410525046-1.7336159776-1.1136065124-3.088345068-2.5028117168-4.1215773877-1.7451080156-1.3088310117-3.7656745764-1.9173484389-5.8781774413-2.2961652528-2.4224375241-.4247849659-4.8793511622-.5281432346-7.3362648003-.4362770039-2.3535553694,.0917961573-4.7071107389,.3214266972-6.9688699511,1.0447243577-1.423611245,.4477690419-2.7668482973,1.0562163957-3.8460487691,2.1354168675-.8955380838,.8840460458-1.400627169,1.9402624416-1.3777131664,3.2376014153,.034476114,2.0551127482,.034476114,4.1216474611,.034476114,6.1881821739-.011492038,.2755286186,.0573901166,.3673948493,.3559028113,.3673948493,1.8598882489-.011492038,3.7082844598,0,5.5566806707,0,2.5716938714,0,5.1434578162,0,7.7151516876-.011492038,.2755286186,0,.3903088519,.0688821546,.3673948493,.3673948493-.022984076,.4132929279-.022984076,.8380778938,0,1.2514408951,.0229140026,.3214266972-.0803741927,.3903088519-.3903789253,.3903088519-3.3293975725-.011492038-6.6703572565-.011492038-9.9998249024-.011492038h-9.6668360938c-1.2284568191,0-2.3765394455,.3100047326-3.4557399172,.8725540078-2.1813149461,1.1595746644-3.4786539198,3.0539390273-4.305309849,5.3041361281-.8839759724,2.4224375241-1.1250985504,4.9482333169-1.1480826264,7.5085052237-.0114219646,1.5613755543,.0803741927,3.1227511086,.3214967706,4.6841266629,.3329187352,2.1813850195,.8840460458,4.305309849,2.1010108269,6.1881821739,1.2858469357,1.9976525582,3.0423769159,3.3638736866,5.487798516,3.5246220719,1.641749747,.1147802333,3.3064835699,.022984076,4.9597253549,.0344060406,.2870206566,0,.1951544259-.1836623879,.1951544259-.3329187352,.011492038-2.0435506368,.011492038-4.0986633851,0-6.1422140219,0-.9185221598,.0803741927-1.8254822083,.2985126946-2.7209502187,.4936671205-2.0436207102,1.4924933996-3.7542526118,3.3523816486-4.8564371596,1.4006972424-.8380778938,2.9505807587-1.0906925098,4.546432427-1.0906925098,4.4889722369,0,8.9665225093,0,13.4555648196,.011492038,1.0562163957,0,2.0894487155-.1377643093,3.0997670326-.4591910065,2.1469089055-.6888916199,3.7427605738-1.9862305936,4.546432427-4.1560535017,.3559028113-.9759122765,.4821750825-1.9977226316,.4821750825-3.0194629133,.022984076-4.3741920037,.011492038-8.7483840073,.011492038-13.122576011,0-.1033582687,0-.218138502-.011492038-.3329888086Zm-21.8594679803,2.6291540614c-1.3777131664,0-2.5257957928-1.1480826264-2.5372878308-2.5257957928,0-1.4006972424,1.1251686238-2.5257957928,2.5487798688-2.5257957928,1.3662211284-.011492038,2.5028117168,1.1480826264,2.4913196787,2.5372878308,0,1.3662211284-1.1480826264,2.5028117168-2.5028117168,2.5143037548Z"/></g></g></svg>