<?xml version="1.0" encoding="UTF-8"?><svg id="Layer_2" xmlns="http://www.w3.org/2000/svg" viewBox="0 0 92.2716627635 92.2716627635"><defs><style>.cls-1{fill:#fff;}.cls-2{fill:#004481;}.cls-3{fill:#f7931e;}.cls-4{fill:#1e1e1e;}</style></defs><g id="Layer_1-2"><circle class="cls-4" cx="46.1358313817" cy="46.1358313817" r="46.1358313817"/><path d="M43.9542288102,16.8010662942c-.0401326896,.0892641441-.0802672163,.0265585298-.1203999058,0h.1203999058Z"/><path d="M46.1147328132,46.1057293683c.0140663702,.0189570663,.0281322883,.0379178072,.0421976681,.0568785481-.014066442,.0011060432-.0281323528,.002215761-.0421981992,.0033254788,.0000000718-.0200667841,.0000000718-.0401372428,.0000005311-.0602040269Z"/><path class="cls-2" d="M46.1619782561,46.1705872282c-.0174304554-.0231681146-.0348606524-.0463325546-.0522937488-.0695116929,.017429422,.02316444,.0348617146,.0463399037,.0522937488,.0695116929Z"/><g><path class="cls-1" d="M82.794512714,43.8678030952c-2.0103034792-1.4397459142-3.6646025526-2.8706265418-5.8495799176-3.3752815776-1.2016825838-.2775431795-1.9842828785-.9853448092-2.4769343908-2.1038614536-.760336494-1.726266873-1.6282525041-3.4068119712-2.3471170427-5.1493837894-1.7467302025-4.2341770697-4.6806827713-7.3758579117-8.6552126647-9.5779714247-1.0768685315-.596647528-2.2079812727-1.0907488057-3.4891452787-1.0213905931-1.0688961519,.057866655-1.8378542421-.5537245488-2.6807840699-1.084745051-.7485986582-.4715908482-1.6089967402-.7791419845-2.445153075-1.0920673494-.3416567193-.1278619654-.7575448627-.1109226265-1.0134314151,.2804328346-.2157346707,.3299479916-.098966576,.639141088,.0762396675,.9276468932,.2440188732,.401833503,.4758541152,.819743721,.7771035943,1.176620183,1.1158734639,1.3219244592,1.8810877385,2.8201854837,2.3447062852,4.4789383748,.3716894784,1.329856814,.8504390996,2.6041325208,1.8519465701,3.609863379,.6795479824,.6824042493,.3374930769,1.4107974435,.0668130427,2.1075261182-.8381862186,2.1574771842-.8922226789,4.3268288336-.1476448354,6.5120527642,.1357122346,.3982824127,.3278197498,.785958066,.5521110951,1.1418610338,.1124919215,.1784977223,.3555412979,.3844328361,.5403429625,.3851986515,.4005146947,.0016635933,.3030110201-.3901504917,.347478028-.6422724942,.2122678542-1.2035805624,.2669794997-2.4582717304,1.1421667355-3.4405532781,.2652352712-.2976945082,.5560237071-.6467657105,.794589161,.0112687355,.7770646413,2.1434199288,1.9900998591,4.0553862175,3.1503364562,5.99660925,.0335385287,.0561143656-.0368668457,.1743116975-.0834373153,.3637688005-1.4662037167-.9874648632-2.3571539311-2.3885998364-3.1447358811-3.9198715064-.5061682016,.4599997779-.4018261122,.9999255881-.4853456617,1.4818614341-.1173740302,.6772879968-.3227472043,1.3166486618-1.0668792524,1.5301402535-.7565407411,.2170480903-1.2839642936-.2450803949-1.696329355-.7709662562-1.5721688475-2.0049847354-1.9092637382-4.3860389106-1.3629176864-6.7218623847,.4705088987-2.0116196388,.4085476679-3.603835287-.6513373578-5.4975766836-1.2941786345-2.3123655103-1.8855500205-5.0004180935-3.7057022904-7.0840168074-.5763831391-.6598078278-.6257495681-1.5710064558-.094426388-2.389454348,.5652772074-.8707426453,1.5394310192-1.026362444,2.266129438-.6606115013,4.5046974679,2.267250006,9.9481231628,2.5972407231,13.5696004217,6.7170717119,1.8221821538,2.0729335448,3.5334651308,4.1599600397,4.5871176773,6.7464106619,.7111172208,1.7456156099,1.5858889579,3.4239541214,2.3502679072,5.1488516126,.3346321958,.7551112817,.9152395709,1.1551221874,1.6436432652,1.4433262093,2.409961208,.9535331841,4.4537815754,2.4459234981,6.2631828187,4.2832033162,.6667540876,.6770154184,.6096057158,1.092552474-.3799128885,1.2577587563-.8357927735,.1395384868-1.6754375654,.2666962914-2.5002542505,.456387033-.3767966489,.0866604484-.970639386,.0453280505-1.0131847128,.5403801075-.0379402171,.441440653,.4782908415,.6554081751,.8346328399,.8716104071,1.0101550354,.6128881144,2.0449110512,1.1939581136,2.8379074675,2.0932438775,.2211664495,.2508023771,.7458459799,.4758872023,.4042282136,.8985221118-.2764883586,.3420577178-.599945373-.053557321-.8711274681-.1888730065-1.6440933887-.8204002887-3.3738054605-1.5261099877-4.5898314026-2.9895226262-1.047723035-1.2608674476-.9185202787-1.5735602555,.6125747996-2.103459076,1.1165919302-.3864490506,2.3085622339-.294133683,3.7373061537-.6468133035Z"/><path class="cls-1" d="M60.5196147322,26.7324057441c-.2399331369-.4012321-.4516469929-.6617834801-.5591009937-.9598879375-.1198626938-.3325445168-.9048910585-.6221471253-.294276893-.9803042729,.5108642015-.2996523131,.938654649,.2164380339,1.1934029083,.7034587642,.2289310798,.4376548424,.1171749371,.8141385581-.3400250216,1.2367334461Z"/></g><path class="cls-1" d="M29.5768677466,58.4010427155h-2.4940475378v-9.0925831059c-.0847851848-.0167005904-.1695718728-.0333981745-.2543570576-.0500987649-.8014208994,1.772460271-1.6047238096,3.5440727352-2.4034569813,5.3177415818-.3900843045,.8662240006-.7818777513,1.7319248865-1.1544557482,2.6057250325-.4465807033,1.0473570112-1.2526044118,1.4186753237-2.3538227062,1.404034122-1.0689587966-.0142172983-1.8046897048-.4246519712-2.2459362906-1.4200552645-1.0621004308-2.3959920729-2.1531022029-4.7791798587-3.235732635-7.1660414738-.1142118957-.2518016117-.2503126887-.4936790742-.5591345656-.6955803438v9.0636644777h-2.4985714287c0-1.669794481-.0004280372-3.3038999055,.0001300271-4.93800533,.0004814009-1.4109368323,.0002172129-2.8218826838,.0036903645-4.2328135033,.0038654877-1.5702673799,.3067914249-2.0142836181,1.5616153166-2.3024447151,1.5649712183-.3593858834,2.6961709058,.0361370112,3.2638955276,1.2612448253,.8675400553,1.87208959,1.6652510486,3.776540144,2.4921482403,5.6674558541,.3742345272,.8557767366,.7473724674,1.7120375047,1.2133557694,2.7796576986,.8658557158-1.928838527,1.6367886426-3.6469670121,2.4083859854-5.3647978629,.4429204029-.9860834318,.8629785844-1.9833356653,1.3358578322-2.9548620747,.7717040702-1.5854677733,3.042118526-2.0805598587,4.3638206913-.925191666,.2872456461,.2510951061,.528099427,.7270213474,.5328194859,1.1026328089,.041189278,3.2781049341,.0237957108,6.5569464379,.0237957108,9.940317704Z"/><path class="cls-3" d="M68.8463084286,57.9913115418c.770121197,.7146469765,1.4366416115,1.3331550724,2.2505541317,2.0884396512-1.551480343,.0550894004-2.9507102268,.3834160939-3.963586757-.996702061-.4725951424-.6439362857-1.1342692289-.715389559-1.9129646985-.6760928141-1.4692731522,.0741470139-2.9558812467,.1086034436-4.4169529208-.031525183-2.0565687315-.1972323197-2.8781686342-1.2068378792-2.8840792302-3.2414327825-.0049545586-1.7055196145-.0074318379-3.4111023635,.0015272547-5.1165889075,.007750517-1.4755264786,.6321962667-2.5656015258,2.0694030826-2.6636344427,2.7267930393-.1859883578,5.4846963774-.1764400094,8.2118381598,.0112048786,1.4001859211,.0963403098,2.0167999807,1.1490637574,2.0330526165,2.5904915687,.019962542,1.7708879202-.0244481011,3.5428551404,.0163608665,5.3130335486,.0259813686,1.1270328075-.216569529,2.0805628651-1.4051525054,2.7228065437Zm-6.0593229579-2.8804054009c1.9030074787-.4650430482,3.397149629-.0003006407,4.6529137744,1.7762633757,.2216323182-.7412897546,.4409136263-1.150287365,.4507205257-1.5642455468,.0403640193-1.7036887127,.0018519467-3.4090760452,.0232274999-5.1134502187,.0118392305-.9442192154-.4830995282-1.4359020354-1.3543622668-1.464402773-1.5383243064-.0503182326-3.0814047485-.0520890063-4.6189594146,.011451404-.7969203083,.0329321814-1.3605434395,.4787823279-1.363916628,1.3755664549-.0064036467,1.704629718-.0233297177,3.4096833394,.0073476585,5.1137809234,.0142623944,.7924828517,.36540471,1.4384965645,1.2386396516,1.5118438742,.8249099567,.0692886603,1.6602100558,.0148787079,2.7096084173,.0148787079-.6777703892-.6453312585-1.1848730702-1.1281602101-1.7452192179-1.6616862016Z"/><path class="cls-1" d="M31.7389824059,61.8798253116v-1.6088756576c1.8926985094,0,3.7502250642,.0020654016,5.6077425998-.0010041399,.753697196-.0012446525,1.5156499854,.0541393758,2.2591524555-.0366180363,1.1662964819-.1423744126,1.389465074-.5272907035,1.1600882516-1.8648561749-1.642228736,0-3.3098105015,.0551224709-4.9712471713-.0220670268-.8998175916-.0418070946-1.8234850093-.2090865822-2.6743282321-.5008012522-1.012512755-.3471498072-1.5459455479-1.1346841131-1.5235282747-2.2744911436,.0327247393-1.6639410068,.0084089202-3.3290034033,.0084089202-5.0431965017h2.4925473408c0,1.6087103052-.0030424838,3.170761175,.0009500246,4.7327879935,.0032619515,1.2754470916,.2533469049,1.5655262762,1.5374674804,1.5900735887,1.7289455372,.0330494313,3.4589944258,.0082014781,5.2942495181,.0082014781v-6.3436448732h2.3134391452c.0488240484,.0593254278,.1244201504,.1082847645,.1246666758,.1576168957,.0146682594,2.9491769592,.0926754998,5.9011769346-.0255153755,8.8452730661-.0241173963,.6007492503-.687078225,1.3070744924-1.2393461572,1.717292704-.5183857262,.3850485729-1.2762888855,.601242301-1.935251193,.616713271-2.7784070333,.0652149789-5.5592282113,.0275958091-8.4294960081,.0275958091Z"/><path class="cls-3" d="M45.3734977747,58.367223644v-1.5773745259c.5519071634,0,1.0920382309,.0006553967,1.632166292-.0001202563,1.7727939822-.0025434203,3.5457773679,.0088598812,5.3182917543-.0148877271,.8228114847-.0110214878,1.4835114954-.2498414344,1.5201205124-1.2696988415,.0554050732-1.5434953263-.0996563766-1.8639151695-1.3457248598-1.9948201397-.9752092579-.1024583479-1.9666711517-.0415605693-2.9498353624-.0804785069-.5210283579-.0206239515-1.0510007764-.0483430233-1.5576615157-.1601783544-2.8325193515-.6252304218-2.8633530609-1.8737611522-2.4815814715-4.3750947172,.0567880203-.3720639014,.3794265919-.7858988205,.697916322-1.015711572,.4399185056-.317440494,.9885907752-.6643918784,1.49784905-.6756899556,2.8734966778-.0637328203,5.7491369238-.0307826005,8.6733246287-.0307826005v1.5175049384c-.9345235531,0-1.8443584925,.0000450961-2.7541964384-.0000120256-1.3132075625-.000081173-2.6264241442-.0028049777-3.9396256939,.0002795958-1.718438145,.0040345981-1.9365409415,.2516903746-1.8483119176,1.945957008,.0389991106,.7488659001,.4005766646,1.1776787385,1.1240384262,1.2436573448,.7173467299,.0654164082,1.4415600932,.0566407064,2.1628512289,.077405959,.7872306588,.0226622954,1.5885132635-.0453666804,2.3593890686,.0779350866,3.0877362414,.4938895226,3.3300736842,2.1035438396,2.6140407541,4.7193222969-.3069210762,1.1212244293-1.5517328812,1.5462101117-2.6443753999,1.5834234166-2.6515366612,.0902974319-5.3082232975,.0293635764-8.0786753781,.0293635764Z"/><path class="cls-3" d="M71.7877048067,47.0790375122h2.5051847723c0,.3428356133,.0001743716,.6877125769-.0000240513,1.032586534-.0013528831,2.3312941959-.0068125181,4.6625944047-.0025674715,6.9938795814,.0023089205,1.2660640956,.3399584819,1.63651055,1.632617253,1.6596418449,1.9366732234,.0346548526,3.874278433,.0156633801,5.8114567328,.024595415,.320122209,.0014761458,.6401241617,.0290328716,1.0038031942,.0466534226v1.4640510234c-2.7521851521,0-5.4802228439,.1525961961-8.18166586-.0497770794-2.0471767162-.1533568171-2.7708729775-1.2606134798-2.77211763-3.3555078867-.001322819-2.2327892732,.0020383439-4.4655815527,.0032829964-6.6983708259,.0001984229-.3526695703,.0000300641-.7053361342,.0000300641-1.1177520293Z"/></g></svg>